<svg xmlns="http://www.w3.org/2000/svg" width="530" height="530" viewBox="0 0 529.901 529.901"><path d="M524.484 51.108c-3.614-3.617-7.898-5.426-12.847-5.426H182.73c-4.952 0-9.234 1.81-12.85 5.426s-5.426 7.898-5.426 12.847v91.36h-45.68c-4.952 0-10.472 1.24-16.562 3.715s-10.944 5.52-14.562 9.135l-56.53 56.527c-3.615 3.617-6.66 8.475-9.135 14.562-2.474 6.095-3.71 11.613-3.71 16.562v118.77c-4.952 0-9.233 1.8-12.85 5.427S0 387.912 0 392.86s1.81 9.23 5.424 12.848c3.62 3.617 7.902 5.424 12.85 5.424H54.82c0 20.18 7.134 37.4 21.41 51.678s31.5 21.41 51.678 21.41 37.4-7.135 51.678-21.41S201 431.313 201 411.132h109.638c0 20.18 7.14 37.4 21.41 51.678 14.277 14.274 31.497 21.41 51.674 21.41s37.404-7.135 51.675-21.41c14.277-14.277 21.416-31.497 21.416-51.678h54.816c4.948 0 9.233-1.807 12.847-5.424s5.428-7.898 5.428-12.848V63.96c-.001-4.952-1.807-9.23-5.418-12.85zM153.748 436.973c-7.142 7.135-15.752 10.704-25.84 10.704s-18.702-3.57-25.84-10.704-10.707-15.752-10.707-25.84 3.568-18.7 10.707-25.838 15.752-10.707 25.84-10.707 18.702 3.572 25.84 10.707 10.705 15.753 10.705 25.838-3.567 18.702-10.705 25.84zm10.708-172.02H54.82V256.4c.378-1.903 1.237-4 2.568-6.28l55.672-55.677c1.52-1.328 3.617-2.2 6.28-2.568h45.114v73.09zm245.105 172.02c-7.138 7.135-15.748 10.704-25.837 10.704s-18.7-3.57-25.837-10.704-10.715-15.752-10.715-25.84 3.576-18.7 10.715-25.838 15.748-10.707 25.837-10.707 18.7 3.572 25.837 10.707 10.705 15.753 10.705 25.838-3.567 18.702-10.705 25.84zm47.25-217.702c0 2.668-.855 4.858-2.563 6.567-1.718 1.715-3.907 2.568-6.57 2.568h-63.953v63.95c0 2.67-.855 4.856-2.563 6.57-1.718 1.71-3.9 2.563-6.57 2.563h-54.82c-2.666 0-4.856-.853-6.563-2.563-1.72-1.715-2.57-3.9-2.57-6.57v-63.95h-63.952c-2.667 0-4.854-.854-6.567-2.568s-2.568-3.9-2.568-6.567v-54.817c0-2.666.854-4.853 2.568-6.565s3.9-2.57 6.567-2.57h63.952V91.365c0-2.663.852-4.853 2.57-6.567 1.707-1.71 3.897-2.565 6.563-2.565h54.82c2.67 0 4.853.856 6.57 2.565 1.708 1.715 2.563 3.905 2.563 6.567v63.953h63.953c2.663 0 4.853.86 6.57 2.57 1.708 1.713 2.563 3.9 2.563 6.565v54.818z"/></svg>