<svg xmlns="http://www.w3.org/2000/svg" width="512" height="512" viewBox="0 0 55 60" fill-rule="nonzero"><path d="M47.13 37.7a17.99 17.99 0 0 0-1.39 9.3c.225 2.062.633 4.1 1.22 6.1.315 1.03.713 2.034 1.2 3a26.02 26.02 0 0 1 1.6 2.83l-25.1.06c-.08-.3-1.6-6.18-4.93-7.7l-1.94.67A67.8 67.8 0 0 1 11 53.93c-.63.15-1.295.058-1.86-.26h-.01a3.2 3.2 0 0 1-1.34-1.73 4.99 4.99 0 0 1-.29-2.23c.24-.77.32-1.58.24-2.38-.26-1-1.23-1.26-2-1.8-.6-.44.5-1.85.5-1.85l-1.6-1.25c-.44-.36.17-.98.73-2.15a2.73 2.73 0 0 0 .19-1.62c-.2-1.07-1.84-1.48-2.64-2.07-.37-.28-.98-.7-1.05-1.2-.1-.7.73-1.7 1.14-2.2 1.745-2.248 3.24-4.68 4.46-7.25a2.06 2.06 0 0 0 .28-.89c-.02-1.43-2.1-2.02-2.3-3.4a2.6 2.6 0 0 1 .22-1.19 30.52 30.52 0 0 0 1.48-3.78 28.27 28.27 0 0 1 .95-3.5c.84-2.3 2.13-4.41 3.8-6.2 2.45-2.6 6.07-3.87 9.5-4.55a66.67 66.67 0 0 1 9.23-1.35c.1-.01.2-.01.3-.02 6.4-.32 11.46 1.85 16.4 5.73a15.54 15.54 0 0 1 5.64 8.09 29.08 29.08 0 0 1 1.01 8.2c-.02 2.733-.817 5.404-2.3 7.7-1.5 2.35-3.45 4.4-4.57 6.96z" fill="#a4c2f7"/><path d="M44.13 37.7a17.99 17.99 0 0 0-1.39 9.3c.225 2.062.633 4.1 1.22 6.1.315 1.03.713 2.034 1.2 3a26.02 26.02 0 0 1 1.6 2.83l-22.1.06c-.07-.27-1.28-4.96-3.9-7.05-.315-.256-.66-.47-1.03-.64l-.08.03-1.86.64c-.02-.01-.03-.03-.05-.04-.307-.254-.647-.466-1-.63l-5.42 1.77-2.16.6h-.01a3.2 3.2 0 0 1-1.34-1.73 4.99 4.99 0 0 1-.29-2.23c.24-.77.32-1.58.24-2.38-.26-1-1.23-1.26-2-1.8-.6-.44.5-1.85.5-1.85l-1.6-1.25c-.44-.36.17-.98.73-2.15a2.73 2.73 0 0 0 .19-1.62c-.2-1.07-1.84-1.48-2.64-2.07-.37-.28-.98-.7-1.05-1.2-.1-.7.73-1.7 1.14-2.2 1.745-2.248 3.24-4.68 4.46-7.25a2.06 2.06 0 0 0 .28-.89c-.02-1.43-2.1-2.02-2.3-3.4a2.6 2.6 0 0 1 .22-1.19 30.52 30.52 0 0 0 1.48-3.78 28.27 28.27 0 0 1 .95-3.5c.84-2.3 2.13-4.41 3.8-6.2 2.45-2.6 6.07-3.87 9.5-4.55a66.67 66.67 0 0 1 9.23-1.35c.45.03.9.07 1.32.13a24.59 24.59 0 0 1 12.39 5.58 15.54 15.54 0 0 1 5.64 8.09 29.08 29.08 0 0 1 1.01 8.2c-.02 2.733-.817 5.404-2.3 7.7-1.5 2.35-3.45 4.4-4.57 6.96z" fill="#fff"/><path d="M44.13 37.7a17.99 17.99 0 0 0-1.39 9.3c.225 2.062.633 4.1 1.22 6.1.315 1.03.713 2.034 1.2 3a26.02 26.02 0 0 1 1.6 2.83l-19.23.05c-.1-.38-1.62-6.18-4.93-7.68l-1.84.64-.1.03a4.19 4.19 0 0 0-1.01-.64c-.02-.01-.03-.02-.05-.03l-1.86.63L12 53.67H12a2.86 2.86 0 0 1-.7-.6c-.283-.333-.5-.716-.64-1.13a4.99 4.99 0 0 1-.29-2.23c.24-.77.32-1.58.24-2.38-.26-1-1.23-1.26-2-1.8-.6-.44.5-1.85.5-1.85l-1.6-1.25c-.44-.36.17-.98.73-2.15a2.73 2.73 0 0 0 .19-1.62c-.2-1.07-1.84-1.48-2.64-2.07-.37-.28-.98-.7-1.05-1.2-.1-.7.73-1.7 1.14-2.2 1.745-2.248 3.24-4.68 4.46-7.25a2.06 2.06 0 0 0 .28-.89c-.02-1.43-2.1-2.02-2.3-3.4a2.6 2.6 0 0 1 .22-1.19 30.52 30.52 0 0 0 1.48-3.78 28.27 28.27 0 0 1 .95-3.5c.84-2.3 2.13-4.41 3.8-6.2 2.45-2.6 6.07-3.87 9.5-4.55 2.536-.548 5.1-.955 7.68-1.22a24.59 24.59 0 0 1 12.39 5.58 15.54 15.54 0 0 1 5.64 8.09 29.08 29.08 0 0 1 1.01 8.2c-.02 2.733-.817 5.404-2.3 7.7-1.5 2.35-3.45 4.4-4.57 6.96z" fill="#e8edfc"/><path d="M46.02 30.88c-.01.01-.02.02-.03.02-1.9 1.85-4 4.22-4 7.1.018.946-.12 1.89-.4 2.8a1 1 0 0 1-1.88.01 4.93 4.93 0 0 0-.82-1.28c-.875-.936-1.843-1.78-2.9-2.52-2.83-2.12-2.16-5.76-1.5-7.7l.18-.52 11.35 2.1z" fill="#428dff"/><g fill="#7facfa"><path d="M43.02 30.88c-.01.01-.02.02-.03.02-1.9 1.85-4 4.22-4 7.1.002.51-.035 1.017-.1 1.52-.875-.936-1.843-1.78-2.9-2.52-2.83-2.12-2.16-5.76-1.5-7.7l8.53 1.57z"/><path d="M50 22l-.1-2c-.123-1.373-.37-2.732-.74-4.06A10.83 10.83 0 0 0 46 10.88a11.6 11.6 0 0 0-1.11-.96l-.68-.52L42 7.9l-1.4-.8A17.59 17.59 0 0 0 35 5.21c-.66-.104-1.323-.168-2-.2L32.2 5l-1.07.03c-.05 0-.1.01-.15.01-.1 0-.2.01-.32.02L29 5.2l-2.15.28-1.82.3-2.83.54-2.25.56c-.664.197-1.315.434-1.95.7-1.19.487-2.27 1.204-3.18 2.1a13.59 13.59 0 0 0-2.29 3.3l-.66 1.54-.13.4-.68 2.62a8.7 8.7 0 0 0-.18 1.45c-.056.66-.032 1.325.07 1.98h0c.13 1.853 1.32 3.465 3.05 4.14.312.116.633.207.96.27H15c.33.06.664.094 1 .1a10.52 10.52 0 0 0 1.97-.1l6.66-.85c.79-.07 1.586-.087 2.38-.05.667.033 1.33.127 1.98.28a7.64 7.64 0 0 1 3.58 2.03c1.327 1.4 2.818 2.635 4.44 3.68.606.365 1.25.663 1.92.9a8.96 8.96 0 0 0 1.4.35 10.57 10.57 0 0 0 4.58-.33 7.52 7.52 0 0 0 3.43-2.8c.517-.81.92-1.69 1.2-2.6a8.78 8.78 0 0 0 .4-1.99c.044-.335.067-.672.07-1v-1z"/></g><path d="M47 22l-.1-2c-.123-1.373-.37-2.732-.74-4.06A10.83 10.83 0 0 0 43 10.88a11.6 11.6 0 0 0-1.11-.96l-.68-.52L39 7.9l-1.4-.8A17.59 17.59 0 0 0 32 5.21l-1.33-.15L29 5.2l-2.15.28-1.82.3-2.83.54-2.25.56c-.664.197-1.315.434-1.95.7-1.19.487-2.27 1.204-3.18 2.1a13.59 13.59 0 0 0-2.29 3.3l-.66 1.54-.13.4-.68 2.62a8.7 8.7 0 0 0-.18 1.45c-.056.66-.032 1.325.07 1.98h0c.13 1.853 1.32 3.465 3.05 4.14.312.116.633.207.96.27H15a52.49 52.49 0 0 1 9.01-.9l.62.05c.79-.07 1.586-.087 2.38-.05.667.033 1.33.127 1.98.28a7.64 7.64 0 0 1 3.58 2.03c1.327 1.4 2.818 2.635 4.44 3.68.606.365 1.25.663 1.92.9a8.96 8.96 0 0 0 1.4.35c.533-.077 1.06-.187 1.58-.33a7.52 7.52 0 0 0 3.43-2.8c.517-.81.92-1.69 1.2-2.6a8.78 8.78 0 0 0 .4-1.99c.044-.335.067-.672.07-1v-1z" fill="#a4c2f7"/><path d="M4.754 20.08l1.24-2.97.2-.683.184-.792.413-1.622c.64-2.2 1.667-4.27 3.032-6.112a18.24 18.24 0 0 1 1.371-1.634l1.452 1.375a16.12 16.12 0 0 0-1.218 1.453 17.41 17.41 0 0 0-2.716 5.47l-.388 1.528-.183.79-.255.876c-.39 1.128-.912 2.1-1.26 3.028l-1.87-.708z" fill="#fff"/><g fill="#428dff"><path d="M7.38 15.74c-.534-.122-1.068.206-1.2.738a32.89 32.89 0 0 1-1.426 3.6l1.87.706a32.24 32.24 0 0 0 1.5-3.835 1 1 0 0 0-.745-1.209zm5.266-8.1l-1.452-1.375A18.24 18.24 0 0 0 9.823 7.9l-.606.866a.98.98 0 0 0 .308 1.4 1.03 1.03 0 0 0 1.362-.3l.54-.773a16.12 16.12 0 0 1 1.218-1.454z"/><path d="M7.3 12.505c-.098.26-.092.545.016.8l.1.166a.75.75 0 0 0 .143.144.58.58 0 0 0 .153.113 1.4 1.4 0 0 0 .184.079c.252.075.523.057.763-.05.112-.056.214-.132.3-.223a1.01 1.01 0 0 0 .2-1.048 1.1 1.1 0 0 0-.221-.318c-.1-.095-.197-.172-.315-.227a1.01 1.01 0 0 0-.769-.015 1.06 1.06 0 0 0-.544.578zm3.087 42.49c-1.654-.026-3.093-1.136-3.538-2.73-.322-.857-.436-1.777-.335-2.687.035-.262.1-.524.15-.787.125-.4.162-.806.108-1.213-.08-.3-.308-.467-.9-.8l-.7-.432a1.44 1.44 0 0 1-.589-.973 2.52 2.52 0 0 1 .322-1.447l-.924-.74c-.925-.778-.3-1.866.057-2.515l.435-.817a1.71 1.71 0 0 0 .109-1c-.05-.265-.773-.633-1.2-.853a7.3 7.3 0 0 1-1.043-.6A3.11 3.11 0 0 1 .89 35.534c-.153-1.04.6-2.062 1.317-2.94 1.713-2.208 3.18-4.596 4.378-7.12a1.73 1.73 0 0 0 .175-.426c0-.288-.325-.6-.816-1.053a3.82 3.82 0 0 1-1.459-2.227 3.35 3.35 0 0 1 .27-1.68 1 1 0 1 1 1.871.7c-.1.22-.156.458-.16.7.043.308.425.658.83 1.028a3.48 3.48 0 0 1 1.465 2.5c-.017.477-.15.943-.392 1.355A40.37 40.37 0 0 1 3.8 33.8c-.77.94-.926 1.3-.93 1.455a5.21 5.21 0 0 0 .588.476c.263.184.542.345.832.483.857.436 2.028 1.034 2.26 2.26a3.7 3.7 0 0 1-.269 2.236l-.5.94-.16.3 1.222.935a1 1 0 0 1 .192 1.42c-.148.193-.276.4-.383.62l.214.123a3.3 3.3 0 0 1 1.844 2.046c.143.7.1 1.443-.094 2.137l-.12.622a3.88 3.88 0 0 0 .241 1.764c.215.93 1.125 1.522 2.062 1.343a83.19 83.19 0 0 0 8.591-2.594 1 1 0 0 1 .656 1.889 84.86 84.86 0 0 1-8.842 2.664 4.02 4.02 0 0 1-.818.085zm-5.1-13.325l.017.015-.017-.015z"/><path d="M24.652 60a1 1 0 0 1-.971-.762c-.4-1.58-1.932-5.922-4.373-7.026a1 1 0 0 1 .088-1.858l2.546-.883 1.678-.577c4.155-1.3 5-2.806 4.974-3.836a1 1 0 0 1 .976-1.024 1.04 1.04 0 0 1 1.024.977c.058 2.5-2.086 4.445-6.373 5.8l-1.617.556-.72.252c1.653 1.83 2.86 4.016 3.525 6.4l22.678-.062-.072-.1a11.08 11.08 0 0 1-.771-1.291A21.8 21.8 0 0 1 46 53.394c-.607-2.046-1.026-4.142-1.252-6.264a18.89 18.89 0 0 1 1.46-9.818 24.33 24.33 0 0 1 2.942-4.678l1.7-2.417c1.383-2.14 2.13-4.63 2.15-7.18a27.93 27.93 0 0 0-.971-7.915 14.42 14.42 0 0 0-5.287-7.57C41.5 3.445 36.646 1.733 30.988 2.03a65.02 65.02 0 0 0-9.381 1.346c-4.092.823-7.024 2.223-8.96 4.263a1 1 0 0 1-1.452-1.375c2.23-2.356 5.506-3.942 10.02-4.85C24.4.72 27.632.258 30.886.033c6.168-.313 11.444 1.52 17.086 5.945a16.57 16.57 0 0 1 5.978 8.6c.754 2.765 1.108 5.624 1.05 8.5-.02 2.916-.87 5.767-2.45 8.22-.562.887-1.186 1.727-1.8 2.54a22.45 22.45 0 0 0-2.715 4.286 16.89 16.89 0 0 0-1.308 8.778 33.29 33.29 0 0 0 1.175 5.91 19.63 19.63 0 0 0 1.13 2.86c.2.367.404.722.64 1.06a7.71 7.71 0 0 1 1.016 1.917 1 1 0 0 1-.953 1.293L24.652 60zM40 44a1 1 0 0 1-1-1c0-1.77 0-2.5-3.6-5.2-3.8-2.84-2.232-7.9-1.664-9.368a1 1 0 1 1 1.868.716c-.566 1.473-1.6 5.107 1 7.05 2.5 1.875 3.58 3.086 4.048 4.255A7.62 7.62 0 0 0 41 37.999c0-3.225 2.17-5.762 4.3-7.818a1 1 0 0 1 .7-.282l.03.98.707.707-.1.08C44.83 33.423 43 35.545 43 38c0 4.488-2.3 5.764-2.553 5.9A1 1 0 0 1 40 44z"/></g><path d="M13 21h-2a1 1 0 1 1 0-2h2a1 1 0 0 0 1-1 1 1 0 1 1 2 0 3 3 0 0 1-3 3zm2 5.4a1 1 0 0 1-1-1V24a1 1 0 1 1 2 0v1.4a1 1 0 0 1-1 1zm7-4.4h-1a3 3 0 0 1-3-3v-1a3 3 0 0 1 3-3h1a1 1 0 1 1 0 2h-1a1 1 0 0 0-1 1v1a1 1 0 0 0 1 1h1a1 1 0 1 1 0 2zm-6-7h-3.92a1 1 0 1 1 0-2H16a1 1 0 1 1 0 2zm5-2a3 3 0 0 1-3-3V7.2a1 1 0 1 1 2 0V10a1 1 0 0 0 1 1 1 1 0 1 1 0 2zm5 7h-1a1 1 0 1 1 0-2h1a1 1 0 0 0 1-1v-2a1 1 0 1 1 2 0v2a3 3 0 0 1-3 3zm5-5a1 1 0 0 1-1-1v-1a1 1 0 0 0-1-1h-2a1 1 0 0 0-1 1v1a1 1 0 1 1-2 0v-1a3 3 0 0 1 3-3h2a3 3 0 0 1 3 3v1a1 1 0 0 1-1 1zm-5-7a1 1 0 0 1-1-1V6a1 1 0 1 1 2 0v1a1 1 0 0 1-1 1zm4 0a1 1 0 0 1-1-1V5.1a1 1 0 1 1 2 0V7a1 1 0 0 1-1 1zm6 3h-2a1 1 0 0 1-1-1V5.1a1 1 0 1 1 2 0V9h1a1 1 0 1 1 0 2zm-8 14.6a1 1 0 0 1-1-1V23a1 1 0 1 1 2 0v1.6a1 1 0 0 1-1 1zm7-2.6h-1a3 3 0 0 1-3-3v-1a1 1 0 1 1 2 0v1a1 1 0 0 0 1 1h1a1 1 0 1 1 0 2zm4-4h-1a3 3 0 1 1 0-6h1a1 1 0 1 1 0 2h-1a1 1 0 1 0 0 2h1a1 1 0 1 1 0 2zm2-7a1 1 0 0 1-1-1V8a1 1 0 1 1 2 0v3a1 1 0 0 1-1 1zm2 4a1 1 0 1 1 0-2 1 1 0 0 0 1-1v-3a1 1 0 1 1 2 0v3a3 3 0 0 1-3 3zm-2 8h-1a1 1 0 1 1 0-2h1a1 1 0 0 0 1-1v-2a1 1 0 1 1 2 0v2a3 3 0 0 1-3 3zm-3 8a1 1 0 0 1-1-1v-2a3 3 0 0 1 3-3h3a1 1 0 1 1 0 2h-3a1 1 0 0 0-1 1v2a1 1 0 0 1-1 1zm11.96-10H47a1 1 0 1 1 0-2h2.96a1 1 0 1 1 0 2zm-.16 4H47a1 1 0 1 1 0-2h2.8a1 1 0 1 1 0 2z" fill="#7facfa"/><path d="M41.78 32.857c-4.476 0-7.34-2.8-9.925-5.327-2.77-2.7-5.99-2.247-12.407-1.324l-1.35.194c-2.892.4-5.094-.154-6.534-1.68-2.27-2.406-1.71-6.24-1.486-7.36.06-.26.544-2.335.85-3.168.693-1.923 1.772-3.684 3.17-5.176 1.622-1.71 4.28-2.95 7.9-3.678 2.993-.656 6.03-1.094 9.086-1.3C31.47 4 31.84 4 32.21 4c4.677 0 8.778 1.583 13.3 5.13 2.206 1.618 3.82 3.916 4.593 6.54a25.89 25.89 0 0 1 .898 7.34c-.015 2.176-.648 4.303-1.826 6.133-.967 1.468-2.37 2.596-4.01 3.226a12.67 12.67 0 0 1-3.384.487zm2.85-2.415l.265.964-.265-.964a6.5 6.5 0 0 0 2.849-2.368A9.5 9.5 0 0 0 49 22.982a23.87 23.87 0 0 0-.818-6.765 10.56 10.56 0 0 0-3.9-5.511c-4.537-3.56-8.4-4.9-13.088-4.68-2.958.213-5.897.64-8.794 1.274-3.21.645-5.515 1.686-6.847 3.092a13.04 13.04 0 0 0-2.738 4.492c-.224.6-.634 2.3-.773 2.9-.36 1.786-.294 4.207.985 5.565.968 1.025 2.58 1.387 4.8 1.072l1.342-.19c6.615-.952 10.612-1.527 14.1 1.874 3.6 3.52 6.34 5.723 11.372 4.338z" fill="#428dff"/></svg>