<svg xmlns="http://www.w3.org/2000/svg" viewBox="0 0 470.699 470.699" width="512" height="512"><path d="M426.98 0H43.7c-9.18 0-16.07 7.77-15.26 16.95L63.45 409.254c.81 9.173 8.745 18.774 17.644 21.253L219.1 468.842c8.887 2.463 23.413 2.48 32.313.032l138.177-38.28c8.9-2.472 16.835-11.986 17.645-21.175l35.023-392.47C443.068 7.77 436.21 0 426.98 0zM360.5 141.61c-.006.06-.053.107-.112.117s-.118-.02-.144-.077L252.13 185.96c-1.54.63-2.418 2.264-2.098 3.897s1.754 2.81 3.42 2.81h84.103a15.77 15.77 0 0 1 15.682 17.443l-13.14 123.273a15.77 15.77 0 0 1-10.447 13.205L240.38 378a15.76 15.76 0 0 1-10.397.025l-88.852-30.778a15.77 15.77 0 0 1-10.52-13.228l-5.957-55.828a10.39 10.39 0 0 1 10.331-11.492h24.725a10.39 10.39 0 0 1 10.331 9.289l3.655 34.316 61.52 21.385 61.803-21.58 7.56-71.17H129.835a10.39 10.39 0 0 1-10.327-9.25l-3.327-30.164a10.39 10.39 0 0 1 6.366-10.745l111.837-46.11c1.27-.523 2-1.868 1.724-3.214s-1.446-2.314-2.817-2.314h-117.75c-3.545 0-6.518-2.677-6.888-6.2l-3.406-32.42c-.205-1.95.428-3.898 1.74-5.357s3.184-2.29 5.146-2.29h246.38a6.93 6.93 0 0 1 5.166 2.313c1.314 1.472 1.938 3.434 1.715 5.394L360.5 141.61z" fill="#eee"/></svg>