<svg xmlns="http://www.w3.org/2000/svg" viewBox="0 0 512.001 512.001" width="512" height="512" fill="#2d8dc5"><path d="M381.718 4.334c-5.892-5.825-15.388-5.772-21.213.12s-5.77 15.388.12 21.213a204.74 204.74 0 0 1 23.586 27.947c4.75 6.773 14.102 8.432 20.894 3.67 6.783-4.757 8.426-14.1 3.67-20.894-8.046-11.473-17.148-22.257-27.055-32.054zm-36.13 363.298l-24 30c-5.174 6.47-4.123 15.9 2.347 21.083 6.442 5.152 15.888 4.15 21.083-2.347l24-30c5.174-6.47 4.123-15.9-2.347-21.083s-15.9-4.123-21.083 2.347zm-40.52 85.54a15 15 0 0 0-19.642 8.013 132.17 132.17 0 0 1-15.262 26.939c-4.9 6.678-3.46 16.066 3.218 20.968 6.7 4.9 16.075 3.448 20.968-3.218 7.502-10.222 13.804-21.345 18.73-33.06a15 15 0 0 0-8.012-19.641zM418.64 137.488c1.377 8.188 9.13 13.675 17.28 12.304 8.17-1.374 13.678-9.1 12.304-17.28a235.32 235.32 0 0 0-7.743-32.049c-2.505-7.896-10.938-12.265-18.834-9.76s-12.267 10.94-9.76 18.835c2.896 9.127 5.168 18.53 6.753 27.95zm-26.252 192.665c7.308 4.007 16.406 1.277 20.364-5.943 5.984-10.917 11.2-23.105 15.058-32.503 3.152-7.66-.502-16.427-8.163-19.58a15 15 0 0 0-19.58 8.164c-3.57 8.68-8.347 19.876-13.62 29.497-3.983 7.265-1.322 16.382 5.942 20.364zm53.95-101.443c2.26-12.32 3.5-24.48 4.144-32.513.66-8.258-5.5-15.488-13.757-16.148a15.02 15.02 0 0 0-16.147 13.757c-.83 10.373-2.16 20.845-3.747 29.487-1.495 8.148 3.897 15.966 12.046 17.462s15.966-3.904 17.46-12.045zM226.383.043C134.18.043 61.472 67.874 61.472 165c0 59.86 24.58 79.834 42.525 94.418 11.683 9.494 16.423 13.788 16.423 24.848 0 15.532-4.006 24.787-9.55 37.597-8.642 19.964-19.397 44.8-19.397 100.637 0 44.998 23.355 81.58 65.234 88.375 40.616 6.593 86.395-18.797 103.833-70.966l.033-.098c10.147-30.44 30.514-55.117 52.078-81.243 36.947-44.766 78.823-95.505 78.823-187.12-.001-90.54-69.84-171.404-165.1-171.404zm63.13 339.43c-22.343 27.07-45.446 55.064-57.37 90.756l-.032.097c-12.954 38.86-45.317 55.044-70.6 50.938-25.072-4.07-40.04-26.036-40.04-58.763 0-49.613 8.994-70.4 16.93-88.72 6.18-14.28 12.02-27.768 12.02-49.514 0-25.778-14.612-37.653-27.503-48.13-15.46-12.564-31.446-25.556-31.446-71.138 0-78.2 56.738-134.957 134.9-134.957 74.488 0 135.1 63.434 135.1 141.405 0 80.835-36.582 125.16-71.96 168.024zM236.88 60.488c-4.66-.428-9.35-.573-13.58-.437-56.482 1.678-101.744 48.016-101.83 104.803 0 13.083 2.36 25.836 7 37.907 2.98 7.73 11.66 11.582 19.4 8.602s11.58-11.66 8.602-19.4c-2.563-6.648-4.14-13.6-4.73-20.73l60.193-12.04c8.804-.787 31.38 9.952 28.057 29.625-5.705 33.772-24.46 51.45-26.83 55.173-5.178 6.466-4.134 15.906 2.332 21.084s15.907 4.135 21.085-2.332c2.582-4.076 25.804-26.373 32.993-68.927 7.037-41.653-36.43-69.458-63.413-64.062l-50.253 10.05c10.23-28.137 36.997-48.848 68.32-49.78 3.17-.103 6.5.013 9.853.32 37.788 3.6 67.388 39.228 67.388 81.088 0 37.027-13.034 74.54-35.816 103l-73.787 93.256c-5.14 6.497-4.04 15.93 2.456 21.07a15 15 0 0 0 21.07-2.456l73.732-93.188c27.306-34.1 42.344-77.312 42.344-121.675.002-57.153-41.524-105.9-94.6-110.957z"/></svg>