<?xml version="1.0"?>
<svg xmlns="http://www.w3.org/2000/svg" xmlns:xlink="http://www.w3.org/1999/xlink" version="1.1" id="Capa_1" x="0px" y="0px" viewBox="0 0 512.001 512.001" style="enable-background:new 0 0 512.001 512.001;" xml:space="preserve" width="512px" height="512px"><g><g>
	<path d="M381.718,4.334c-5.892-5.825-15.388-5.772-21.213,0.119c-5.825,5.891-5.771,15.388,0.119,21.213   c8.633,8.538,16.568,17.94,23.586,27.947c4.749,6.773,14.102,8.432,20.894,3.669c6.783-4.757,8.426-14.111,3.669-20.894   C400.727,24.915,391.625,14.131,381.718,4.334z" data-original="#000000" class="active-path" data-old_color="#2d8dc5" fill="#2d8dc5"/>
	<path d="M345.587,367.632l-23.991,30c-5.174,6.47-4.123,15.909,2.347,21.083c6.442,5.152,15.888,4.15,21.083-2.347l23.991-30   c5.174-6.47,4.123-15.909-2.347-21.083C360.201,360.111,350.761,361.162,345.587,367.632z" data-original="#000000" class="active-path" data-old_color="#2d8dc5" fill="#2d8dc5"/>
	<path d="M305.068,453.173c-7.639-3.212-16.432,0.376-19.642,8.013c-4.016,9.549-9.15,18.612-15.262,26.939   c-4.901,6.678-3.461,16.066,3.218,20.968c6.691,4.911,16.075,3.448,20.968-3.218c7.502-10.222,13.804-21.345,18.73-33.061   C316.292,465.178,312.705,456.384,305.068,453.173z" data-original="#000000" class="active-path" data-old_color="#2d8dc5" fill="#2d8dc5"/>
	<path d="M418.639,137.488c1.377,8.188,9.129,13.675,17.28,12.304c8.17-1.374,13.678-9.111,12.304-17.281   c-1.817-10.803-4.422-21.586-7.743-32.049c-2.505-7.896-10.938-12.265-18.834-9.76c-7.896,2.506-12.267,10.939-9.76,18.835   C414.782,118.664,417.054,128.068,418.639,137.488z" data-original="#000000" class="active-path" data-old_color="#2d8dc5" fill="#2d8dc5"/>
	<path d="M392.388,330.153c7.308,4.007,16.406,1.277,20.364-5.943c5.984-10.917,11.191-23.105,15.058-32.503   c3.152-7.661-0.502-16.427-8.163-19.579c-7.665-3.154-16.427,0.503-19.58,8.164c-3.571,8.68-8.347,19.876-13.621,29.497   C382.463,317.054,385.124,326.171,392.388,330.153z" data-original="#000000" class="active-path" data-old_color="#2d8dc5" fill="#2d8dc5"/>
	<path d="M446.338,228.709c2.261-12.319,3.501-24.48,4.144-32.513c0.66-8.258-5.499-15.488-13.757-16.148   c-8.237-0.656-15.487,5.499-16.147,13.757c-0.83,10.373-2.16,20.845-3.747,29.487c-1.495,8.148,3.897,15.966,12.046,17.462   C437.027,242.252,444.843,236.85,446.338,228.709z" data-original="#000000" class="active-path" data-old_color="#2d8dc5" fill="#2d8dc5"/>
	<path d="M226.383,0.043C134.181,0.043,61.472,67.874,61.472,165c0,59.859,24.579,79.834,42.525,94.418   c11.683,9.494,16.423,13.788,16.423,24.848c0,15.532-4.006,24.787-9.551,37.597c-8.642,19.964-19.397,44.809-19.397,100.637   c0,44.998,23.355,81.579,65.234,88.375c40.616,6.593,86.395-18.797,103.833-70.966c0.011-0.032,0.022-0.065,0.033-0.098   c10.147-30.439,30.514-55.117,52.078-81.243c36.947-44.766,78.823-95.505,78.823-187.121   C391.472,80.906,321.633,0.043,226.383,0.043z M289.512,339.472c-22.343,27.071-45.446,55.064-57.369,90.756   c-0.011,0.032-0.021,0.064-0.032,0.097c-12.954,38.86-45.317,55.044-70.599,50.938c-25.072-4.069-40.04-26.036-40.04-58.763   c0-49.613,8.994-70.389,16.929-88.719c6.181-14.28,12.02-27.768,12.02-49.514c0-25.778-14.612-37.653-27.503-48.129   C107.457,223.574,91.472,210.582,91.472,165c0-78.199,56.738-134.957,134.911-134.957c74.488,0,135.089,63.434,135.089,141.405   C361.472,252.283,324.89,296.607,289.512,339.472z" data-original="#000000" class="active-path" data-old_color="#2d8dc5" fill="#2d8dc5"/>
	<path d="M236.881,60.488c-4.661-0.428-9.349-0.573-13.579-0.437c-56.482,1.678-101.744,48.016-101.83,104.803   c0,13.083,2.359,25.836,7.011,37.907c2.979,7.729,11.659,11.582,19.391,8.602c7.73-2.979,11.581-11.661,8.602-19.391   c-2.563-6.648-4.139-13.601-4.73-20.729l60.193-12.039c8.804-0.787,31.381,9.952,28.057,29.625   c-5.705,33.772-24.461,51.451-26.829,55.173c-5.178,6.466-4.134,15.906,2.332,21.084c6.465,5.178,15.907,4.135,21.085-2.332   c2.582-4.076,25.804-26.373,32.993-68.927c7.037-41.653-36.43-69.458-63.413-64.062l-50.253,10.051   c10.229-28.137,36.997-48.848,68.319-49.779c3.171-0.103,6.5,0.013,9.853,0.321c37.788,3.609,67.388,39.228,67.388,81.088   c0,37.027-13.034,74.541-35.816,102.991l-73.787,93.256c-5.14,6.497-4.041,15.931,2.456,21.071   c6.496,5.139,15.929,4.042,21.07-2.456l73.732-93.188c27.306-34.101,42.344-77.312,42.344-121.675   C331.472,114.292,289.946,65.556,236.881,60.488z" data-original="#000000" class="active-path" data-old_color="#2d8dc5" fill="#2d8dc5"/>
</g></g> </svg>
