<svg xmlns="http://www.w3.org/2000/svg" width="512" height="512" viewBox="0 0 511.626 511.626"><path d="M505.918 236.117c-26.65-43.587-62.485-78.61-107.497-105.065s-92.55-39.687-142.608-39.687-97.595 13.225-142.6 39.687C68.187 157.508 32.355 192.53 5.708 236.117 1.903 242.778 0 249.345 0 255.818s1.903 13.04 5.708 19.7c26.647 43.59 62.48 78.614 107.495 105.064 45.015 26.46 92.55 39.68 142.6 39.68s97.594-13.176 142.608-39.536 80.852-61.432 107.497-105.208c3.806-6.66 5.708-13.223 5.708-19.7s-1.902-13.04-5.708-19.7zm-311.35-78.087c17.034-17.034 37.447-25.554 61.242-25.554 3.805 0 7.043 1.336 9.71 4s4 5.9 4 9.707-1.338 7.044-3.994 9.704c-2.662 2.667-5.902 4-9.708 4-16.368 0-30.362 5.808-41.97 17.416-11.613 11.615-17.416 25.603-17.416 41.97 0 3.81-1.336 7.044-4 9.7s-5.9 4-9.707 4-7.044-1.334-9.7-4-4-5.903-4-9.7c0-23.8 8.52-44.207 25.553-61.242zm185.3 191c-38.164 23.12-79.514 34.687-124.054 34.687s-85.89-11.56-124.05-34.687-69.9-54.2-95.215-93.222c28.93-44.92 65.2-78.518 108.777-100.783-11.6 19.792-17.417 41.207-17.417 64.236 0 35.216 12.517 65.33 37.544 90.362s55.15 37.544 90.362 37.544 65.33-12.518 90.362-37.544 37.545-55.146 37.545-90.362c0-23.03-5.808-44.447-17.42-64.236 43.585 22.265 79.846 55.865 108.776 100.783-25.3 39.022-57.046 70.095-95.2 93.222z" fill="#2d8dc5"/></svg>