<?xml version="1.0"?>
<svg xmlns="http://www.w3.org/2000/svg" xmlns:xlink="http://www.w3.org/1999/xlink" version="1.1" id="Capa_1" x="0px" y="0px" viewBox="0 0 512 512" style="enable-background:new 0 0 512 512;" xml:space="preserve" width="512px" height="512px"><g><g>
	<path d="M287.819,362.82C279.32,371.319,268.02,376,256,376s-23.32-4.681-31.819-13.18c-5.859-5.858-15.355-5.857-21.213,0   c-5.858,5.858-5.858,15.355,0,21.213C217.132,398.199,235.967,406,256,406s38.868-7.801,53.033-21.967   c5.857-5.858,5.857-15.355,0-21.213C303.175,356.962,293.678,356.961,287.819,362.82z" data-original="#000000" class="active-path" data-old_color="#2d8dc5" fill="#2d8dc5"/>
	<path d="M256,166c8.284,0,15-6.716,15-15v-30c0-8.284-6.716-15-15-15s-15,6.716-15,15v30C241,159.284,247.716,166,256,166z" data-original="#000000" class="active-path" data-old_color="#2d8dc5" fill="#2d8dc5"/>
	<path d="M256,256c8.284,0,15-6.716,15-15v-30c0-8.284-6.716-15-15-15s-15,6.716-15,15v30C241,249.284,247.716,256,256,256z" data-original="#000000" class="active-path" data-old_color="#2d8dc5" fill="#2d8dc5"/>
	<path d="M256,346c8.284,0,15-6.716,15-15v-30c0-8.284-6.716-15-15-15s-15,6.716-15,15v30C241,339.284,247.716,346,256,346z" data-original="#000000" class="active-path" data-old_color="#2d8dc5" fill="#2d8dc5"/>
	<path d="M447.879,196.937C432.594,91.194,363.345,16,256,16C148.718,16,79.416,91.124,64.121,196.937   C28.915,202.456,0,232.879,0,271c0,41.547,34.4,74.993,75.976,74.992c2.096,0,4.2-0.091,6.307-0.262   C111.907,418.898,178.007,496,256,496c78.131,0,144.177-77.309,173.717-150.27c2.107,0.171,4.211,0.262,6.307,0.262   C477.571,345.991,512,312.582,512,271C512,232.874,483.08,202.455,447.879,196.937z M30,271c0-19.373,13.292-36.345,31.252-42.516   C61.089,232.628,61,236.8,61,241c0,7.836,0.394,15.745,1.146,23.685c0.004,0.048,0.01,0.096,0.014,0.145   c1.616,16.962,4.919,34.07,9.779,50.959C48.605,313.757,30,294.489,30,271z M271,464.685V451c0-8.284-6.716-15-15-15   s-15,6.716-15,15v13.685C178.76,453.911,117.094,378.4,97.447,294.703c6.713,2.028,13.963-0.866,17.415-7.031   c4.047-7.229,1.468-16.369-5.761-20.416c-6.099-3.415-11.994-7.299-17.594-11.576C91.176,250.781,91,245.884,91,241   c0-27.395,4.067-54.858,12.463-80.171c6.327-3.919,12.956-7.374,19.772-10.282c7.62-3.25,11.162-12.063,7.912-19.683   c-1.937-4.542-5.855-7.618-10.314-8.688C145.08,80.927,184.572,51.08,241,46.593V61c0,8.284,6.716,15,15,15s15-6.716,15-15V46.593   c56.428,4.486,95.92,34.334,120.167,75.584c-4.458,1.07-8.376,4.146-10.314,8.688c-3.25,7.62,0.292,16.432,7.912,19.683   c6.816,2.908,13.445,6.363,19.772,10.282C416.933,186.142,421,213.605,421,241c0,4.884-0.177,9.781-0.507,14.679   c-5.6,4.277-11.494,8.162-17.594,11.576c-7.229,4.047-9.808,13.188-5.761,20.416c3.459,6.179,10.717,9.054,17.415,7.031   C394.906,378.4,333.24,453.911,271,464.685z M440.06,315.789c4.86-16.889,8.163-33.997,9.779-50.959   c0.005-0.048,0.01-0.096,0.014-0.145C450.606,256.745,451,248.836,451,241c0-4.2-0.089-8.372-0.251-12.516   C468.708,234.655,482,251.627,482,271C482,294.512,463.369,313.761,440.06,315.789z" data-original="#000000" class="active-path" data-old_color="#2d8dc5" fill="#2d8dc5"/>
	<path d="M208.426,238.426c5.858-5.858,5.858-15.355,0-21.213c-5.857-5.858-15.355-5.858-21.213,0   c-11.697,11.696-30.729,11.696-42.427,0c-5.857-5.858-15.355-5.858-21.213,0c-5.858,5.858-5.858,15.355,0,21.213   c11.697,11.697,27.062,17.546,42.426,17.546S196.729,250.124,208.426,238.426z" data-original="#000000" class="active-path" data-old_color="#2d8dc5" fill="#2d8dc5"/>
	<path d="M367.213,217.213c-11.697,11.696-30.729,11.696-42.427,0c-5.857-5.858-15.355-5.858-21.213,0   c-5.858,5.858-5.858,15.355,0,21.213c11.697,11.697,27.062,17.546,42.426,17.546s30.729-5.849,42.426-17.546   c5.858-5.858,5.858-15.355,0-21.213C382.569,211.355,373.071,211.355,367.213,217.213z" data-original="#000000" class="active-path" data-old_color="#2d8dc5" fill="#2d8dc5"/>
	<path d="M176.095,138.833c9.043-0.302,18.197,0.238,27.141,1.602c8.151,1.245,15.836-4.339,17.091-12.565   c1.25-8.189-4.376-15.841-12.566-17.091c-10.766-1.643-21.788-2.293-32.669-1.929c-8.28,0.277-14.767,7.213-14.49,15.493   C160.879,132.623,167.82,139.084,176.095,138.833z" data-original="#000000" class="active-path" data-old_color="#2d8dc5" fill="#2d8dc5"/>
	<path d="M308.764,140.435c8.944-1.364,18.099-1.904,27.141-1.602c8.282,0.297,15.216-6.21,15.493-14.49   c0.277-8.28-6.21-15.216-14.49-15.493c-10.883-0.364-21.903,0.286-32.669,1.929c-8.189,1.25-13.815,8.902-12.566,17.091   C292.926,136.083,300.6,141.684,308.764,140.435z" data-original="#000000" class="active-path" data-old_color="#2d8dc5" fill="#2d8dc5"/>
	<path d="M203.208,300.173c-0.368-8.275-7.349-14.681-15.651-14.319c-9.068,0.404-18.212-0.037-27.161-1.3   c-8.202-1.156-15.792,4.554-16.949,12.757s4.554,15.792,12.757,16.949c10.741,1.515,21.705,2.051,32.684,1.564   C197.165,315.457,203.576,308.45,203.208,300.173z" data-original="#000000" class="active-path" data-old_color="#2d8dc5" fill="#2d8dc5"/>
	<path d="M351.604,284.554c-8.948,1.263-18.092,1.705-27.161,1.3c-8.29-0.367-15.283,6.043-15.651,14.319   c-0.368,8.276,6.043,15.284,14.319,15.651c10.968,0.486,21.932-0.048,32.684-1.564c8.203-1.157,13.915-8.746,12.757-16.949   S359.805,283.4,351.604,284.554z" data-original="#000000" class="active-path" data-old_color="#2d8dc5" fill="#2d8dc5"/>
</g></g> </svg>
