<svg xmlns="http://www.w3.org/2000/svg" xmlns:xlink="http://www.w3.org/1999/xlink" width="512" height="512"><g fill="#2d8dc5"><path d="M287.82 362.82a44.7 44.7 0 0 1-63.638 0c-5.86-5.858-15.355-5.857-21.213 0s-5.858 15.355 0 21.213C217.132 398.2 235.967 406 256 406s38.868-7.8 53.033-21.967c5.857-5.858 5.857-15.355 0-21.213s-15.355-5.86-21.214 0z"/><use xlink:href="#B"/><use xlink:href="#B" y="90"/><use xlink:href="#B" y="180"/><path d="M447.88 196.937C432.594 91.194 363.345 16 256 16 148.718 16 79.416 91.124 64.12 196.937 28.915 202.456 0 232.88 0 271c0 41.547 34.4 74.993 75.976 74.992a77.98 77.98 0 0 0 6.307-.262C111.907 418.898 178.007 496 256 496c78.13 0 144.177-77.3 173.717-150.27a77.98 77.98 0 0 0 6.307.262C477.57 346 512 312.582 512 271c0-38.126-28.92-68.545-64.12-74.063zM30 271c0-19.373 13.292-36.345 31.252-42.516A318.37 318.37 0 0 0 61 241c0 7.836.394 15.745 1.146 23.685l.014.145c1.616 16.962 4.92 34.07 9.78 50.96C48.605 313.757 30 294.5 30 271zm241 193.685V451c0-8.284-6.716-15-15-15s-15 6.716-15 15v13.685C178.76 453.9 117.094 378.4 97.447 294.703a14.99 14.99 0 0 0 17.415-7.031c4.047-7.23 1.468-16.37-5.76-20.416-6.1-3.415-11.994-7.3-17.594-11.576-.33-4.9-.507-9.796-.507-14.68 0-27.395 4.067-54.858 12.463-80.17 6.327-3.92 12.956-7.374 19.772-10.282 7.62-3.25 11.162-12.063 7.912-19.683-1.937-4.542-5.855-7.618-10.314-8.688C145.08 80.927 184.572 51.08 241 46.593V61c0 8.284 6.716 15 15 15s15-6.716 15-15V46.593c56.428 4.486 95.92 34.334 120.167 75.584-4.458 1.07-8.376 4.146-10.314 8.688-3.25 7.62.292 16.432 7.912 19.683 6.816 2.908 13.445 6.363 19.772 10.282C416.933 186.142 421 213.605 421 241a218.42 218.42 0 0 1-.507 14.679c-5.6 4.277-11.494 8.162-17.594 11.576a15 15 0 0 0-5.76 20.416c3.46 6.18 10.717 9.054 17.415 7.03C394.906 378.4 333.24 453.9 271 464.685zM440.06 315.8c4.86-16.9 8.163-33.997 9.78-50.96l.014-.145c.753-7.94 1.147-15.85 1.147-23.685a324.31 324.31 0 0 0-.25-12.516C468.708 234.655 482 251.627 482 271c0 23.512-18.63 42.76-41.94 44.8zm-231.634-77.364c5.858-5.858 5.858-15.355 0-21.213s-15.355-5.858-21.213 0c-11.697 11.696-30.73 11.696-42.427 0-5.857-5.858-15.355-5.858-21.213 0s-5.858 15.355 0 21.213c11.697 11.697 27.062 17.546 42.426 17.546s30.73-5.848 42.427-17.546zm158.787-21.213c-11.697 11.696-30.73 11.696-42.427 0-5.857-5.858-15.355-5.858-21.213 0s-5.858 15.355 0 21.213c11.697 11.697 27.062 17.546 42.426 17.546s30.73-5.85 42.426-17.546c5.858-5.858 5.858-15.355 0-21.213a15 15 0 0 0-21.212 0zm-191.118-78.38a147.95 147.95 0 0 1 27.141 1.602c8.15 1.245 15.836-4.34 17.1-12.565a15 15 0 0 0-12.566-17.09 177.96 177.96 0 0 0-32.669-1.929c-8.28.277-14.767 7.213-14.5 15.493s7.218 14.74 15.493 14.5zm132.67 1.602c8.944-1.364 18.1-1.904 27.14-1.602 8.282.297 15.216-6.2 15.493-14.5s-6.2-15.216-14.5-15.493a177.95 177.95 0 0 0-32.669 1.929c-8.2 1.25-13.815 8.902-12.566 17.1a15 15 0 0 0 17.09 12.565zM203.208 300.173a14.99 14.99 0 0 0-15.651-14.319 147.83 147.83 0 0 1-27.161-1.3c-8.202-1.156-15.792 4.554-16.95 12.757s4.554 15.792 12.757 16.95a177.84 177.84 0 0 0 32.684 1.564 15 15 0 0 0 14.32-15.65zm148.396-15.62a147.73 147.73 0 0 1-27.16 1.3c-8.3-.367-15.283 6.043-15.65 14.32a15 15 0 0 0 14.32 15.65c10.968.486 21.932-.048 32.684-1.564 8.203-1.157 13.915-8.746 12.757-16.95s-8.747-13.9-16.948-12.757z"/></g><defs ><path id="B" d="M256 166c8.284 0 15-6.716 15-15v-30c0-8.284-6.716-15-15-15s-15 6.716-15 15v30c0 8.284 6.716 15 15 15z"/></defs></svg>