<svg xmlns="http://www.w3.org/2000/svg" width="512" height="512" viewBox="0 0 31.499 31.499" fill="#eee"><path d="M9.602 11.632c-1.208 0-1.813.7-1.813 2.13 0 1.324.605 1.986 1.813 1.986 1.17 0 1.755-.673 1.755-2.015 0-.558-.134-1.037-.402-1.44-.327-.44-.777-.663-1.353-.663zM0 0v31.5h31.498V0H0zm18.62 22.097h-3.477v-10.12c-.254.1-.58.186-1.032.3.153.44.27.853.27 1.237 0 1.23-.37 2.3-1.108 3.2a4.38 4.38 0 0 1-2.864 1.625c-.768.114-1.152.528-1.152 1.24 0 .248.123.498.373.748.327.363.804.595 1.438.688 2.745.425 4.115 1.565 4.115 3.427 0 2.976-1.778 4.463-5.33 4.463-1.457 0-2.666-.26-3.605-.776-1.2-.653-1.8-1.68-1.8-3.08 0-1.6.83-2.717 2.646-3.3v-.056c-.656-.404-.948-1.018-.948-1.843 0-1.075.292-1.747.948-2.017v-.058c-.656-.2-1.158-.7-1.638-1.438a4.57 4.57 0 0 1-.806-2.6c0-1.383.5-2.533 1.47-3.455.94-.863 2.06-1.295 3.367-1.295a5.04 5.04 0 0 1 2.579.69c.902 0 1.95-.223 3.078-.662V8.4h3.477v13.688zM18.375 6.25c-.395.422-.86.633-1.396.633-.558 0-1.032-.2-1.426-.633a2.13 2.13 0 0 1-.6-1.497c0-.594.195-1.104.6-1.525s.87-.633 1.426-.633c.535 0 1 .2 1.396.633s.592.932.592 1.525a2.13 2.13 0 0 1-.592 1.497zm8.678 15.284c-.658.387-1.537.578-2.535.578-1.4 0-2.344-.5-2.88-1.5-.404-.746-.607-1.927-.607-3.54V12.14h-1.715V8.966h1.715V7.134h3.104l.05 1.832h2.66v3.174H24.19v5.077c0 1.285.416 1.93 1.263 1.93.594 0 1.08-.16 1.606-.5v2.877h-.003zm-19.58 3.342c0 .995.843 1.495 2.532 1.495 1.478 0 2.216-.52 2.216-1.555 0-.98-.805-1.47-2.418-1.47-1.554.002-2.33.5-2.33 1.53z"/></svg>