<?xml version="1.0"?>
<svg xmlns="http://www.w3.org/2000/svg" height="512px" viewBox="0 0 496 496" width="512px"><g><path d="m485.894531 152.007812c6.53125-9.351562 10.105469-20.472656 10.105469-32.007812 0-30.878906-25.128906-56-56-56-11.496094 0-22.632812 3.542969-32 10.105469-9.367188-6.5625-20.503906-10.105469-32-10.105469-11.527344 0-22.65625 3.574219-32.007812 10.105469-9.082032-6.351563-20.097657-10.105469-31.992188-10.105469-11.496094 0-22.632812 3.550781-32 10.105469-9.367188-6.554688-20.503906-10.105469-32-10.105469-11.894531 0-22.910156 3.753906-31.992188 10.105469-9.351562-6.53125-20.472656-10.105469-32.007812-10.105469-11.496094 0-22.625 3.542969-32 10.097656v-46.625l-45.785156-27.472656h-18.214844v74.097656c-14.910156 10.414063-24 27.597656-24 45.902344 0 30.878906 25.128906 56 56 56 11.496094 0 22.632812-3.550781 32-10.105469 9.367188 6.554688 20.503906 10.105469 32 10.105469 11.710938 0 22.808594-3.6875 32-10.097656 9.351562 6.523437 20.472656 10.097656 32 10.097656 11.496094 0 22.632812-3.550781 32-10.105469 9.367188 6.554688 20.503906 10.105469 32 10.105469 11.527344 0 22.648438-3.574219 31.992188-10.097656 9.199218 6.410156 20.296874 10.097656 32.007812 10.097656 2.953125 0 5.871094-.28125 8.761719-.742188-.449219 2.878907-.761719 5.78125-.761719 8.742188s.28125 5.894531.742188 8.785156c-14.085938-2.113281-28.855469 1.214844-40.695313 9.359375-9.085937-6.367187-20.125-10.144531-32.046875-10.144531-11.496094 0-22.632812 3.550781-32 10.105469-9.367188-6.554688-20.503906-10.105469-32-10.105469-11.527344 0-22.65625 3.574219-32.007812 10.105469-9.082032-6.351563-20.097657-10.105469-31.992188-10.105469-11.710938 0-22.808594 3.6875-32 10.097656-9.351562-6.523437-20.472656-10.097656-32-10.097656-11.496094 0-22.632812 3.542969-32 10.105469-9.367188-6.5625-20.503906-10.105469-32-10.105469-30.871094 0-56 25.121094-56 56 0 11.894531 3.6875 22.96875 10.039062 32.089844-6.488281 9.335937-10.039062 20.421875-10.039062 31.910156 0 11.527344 3.574219 22.65625 10.105469 32.007812-6.34375 9.082032-10.105469 20.097657-10.105469 31.992188 0 30.871094 25.128906 56 56 56 11.726562 0 22.816406-3.695312 32-10.097656 9.34375 6.523437 20.464844 10.097656 32 10.097656 11.496094 0 22.632812-3.542969 32-10.105469 9.367188 6.5625 20.503906 10.105469 32 10.105469 11.726562 0 22.816406-3.695312 32.007812-10.097656 9.34375 6.523437 20.472657 10.097656 31.992188 10.097656 11.535156 0 22.664062-3.585938 32.023438-10.121094 9.214843 6.425782 20.328124 10.121094 31.976562 10.121094 11.496094 0 22.632812-3.542969 32-10.105469v46.632813l45.785156 27.472656h18.214844v-74.097656c14.910156-10.414063 24-27.589844 24-45.902344 0-30.871094-25.128906-56-56-56-11.496094 0-22.632812 3.542969-32 10.105469-9.367188-6.5625-20.503906-10.105469-32-10.105469-11.527344 0-22.65625 3.585938-32.007812 10.105469-9.082032-6.34375-20.097657-10.105469-31.992188-10.105469-11.527344 0-22.648438 3.574219-32 10.097656-9.34375-6.523437-20.472656-10.097656-32-10.097656-11.496094 0-22.632812 3.542969-32 10.105469-9.367188-6.5625-20.503906-10.105469-32-10.105469-2.984375 0-5.894531.304688-8.761719.753906.449219-2.875.761719-5.785156.761719-8.753906 0-2.976562-.304688-5.886719-.761719-8.769531 2.882813.457031 5.792969.769531 8.761719.769531 11.894531 0 22.910156-3.761719 31.992188-10.105469 9.34375 6.519531 20.472656 10.105469 32.007812 10.105469 11.527344 0 22.640625-3.574219 31.992188-10.097656 9.207031 6.417968 20.328124 10.097656 32.007812 10.097656 11.496094 0 22.632812-3.542969 32-10.105469 9.367188 6.5625 20.503906 10.105469 32 10.105469 11.527344 0 22.648438-3.574219 32-10.097656 9.191406 6.410156 20.289062 10.097656 32 10.097656 11.894531 0 22.910156-3.761719 31.992188-10.105469 9.351562 6.53125 20.472656 10.105469 32.007812 10.105469 30.871094 0 56-25.128906 56-56 0-11.496094-3.542969-22.640625-10.105469-32 6.5625-9.359375 10.105469-20.503906 10.105469-32 0-11.894531-3.753906-22.910156-10.105469-31.992188zm-16.140625 69.335938c6.605469 7.359375 10.246094 16.832031 10.246094 26.65625 0 22.054688-17.945312 40-40 40-7.105469 0-13.976562-1.9375-20.023438-5.449219 7.503907-9.527343 12.023438-21.511719 12.023438-34.550781h-16c0 22.054688-17.945312 40-40 40-16.921875 0-32.089844-10.710938-37.726562-26.65625l-15.082032 5.328125c2.066406 5.839844 5.082032 11.136719 8.769532 15.832031-14.503907 8.113282-33.929688 6.632813-46.617188-4.761718l-5.34375-4.789063-5.34375 4.800781c-7.367188 6.605469-16.832031 10.246094-26.65625 10.246094-16.726562 0-31.832031-10.542969-37.566406-26.238281l-15.035156 5.503906c2.050781 5.597656 4.96875 10.71875 8.546874 15.253906-12.175781 6.785157-27.753906 6.785157-39.921874-.023437 7.472656-9.519532 11.976562-21.480469 11.976562-34.496094h-16c0 22.054688-17.945312 40-40 40-5.183594 0-10.160156-1.03125-14.878906-2.953125-4.511719-8.222656-11.105469-15.304687-19.378906-20.503906l-8.511719 13.546875c11.753906 7.382812 18.769531 20.0625 18.769531 33.910156 0 5.191406-1.023438 10.199219-2.945312 14.9375-17.292969 9.535156-29.054688 27.949219-29.054688 49.0625h16c0-22.054688 17.945312-40 40-40 9.824219 0 19.289062 3.640625 26.65625 10.246094l5.34375 4.800781 5.34375-4.800781c12.703125-11.382813 32.128906-12.863282 46.632812-4.742188-7.65625 9.785156-11.976562 21.902344-11.976562 34.496094h16c0-11.351562 4.847656-22.207031 13.3125-29.800781 7.335938-6.574219 16.816406-10.199219 26.6875-10.199219 22.054688 0 40 17.945312 40 40h16c0-13.015625-4.503906-24.976562-11.976562-34.496094 14.511718-8.113281 33.9375-6.640625 46.632812 4.742188l5.34375 4.800781 5.34375-4.800781c7.367188-6.605469 16.832031-10.246094 26.65625-10.246094 22.054688 0 40 17.945312 40 40 0 14.199219-7.664062 27.464844-20.007812 34.601562l-3.992188 2.308594v65.761719l-32-19.199219v-46.550781l-3.992188-2.3125c-2.359374-1.371094-4.601562-3-6.664062-4.847656l-5.34375-4.808594-5.34375 4.800781c-7.367188 6.605469-16.832031 10.246094-26.65625 10.246094-16.527344 0-31.558594-10.375-37.414062-25.832031l-14.96875 5.671875c2.03125 5.367187 4.863281 10.289062 8.320312 14.664062-12.175781 6.785156-27.738281 6.785156-39.898438-.015625 3.746094-4.769531 6.800782-10.152343 8.863282-16.089843l-15.109375-5.246094c-5.59375 16.054687-20.777344 26.847656-37.792969 26.847656-9.824219 0-19.289062-3.640625-26.65625-10.246094l-5.34375-4.800781-5.34375 4.800781c-12.695312 11.390625-32.121094 12.871094-46.625 4.75 3.746094-4.761718 6.792969-10.136718 8.855469-16.070312l-15.109375-5.265625c-5.59375 16.046875-20.769532 26.832031-37.777344 26.832031-22.054688 0-40-17.945312-40-40s17.945312-40 40-40v-16c-13.039062 0-25.023438 4.519531-34.550781 12.023438-3.503907-6.046876-5.449219-12.917969-5.449219-20.023438 0-7.0625 1.929688-13.902344 5.398438-19.929688 7.226562 5.664063 15.914062 9.632813 25.5625 11.210938l2.558593-15.800781c-19.414062-3.160157-33.519531-19.761719-33.519531-39.480469 0-22.054688 17.945312-40 40-40 9.816406 0 19.28125 3.640625 26.664062 10.246094l5.335938 4.785156 5.335938-4.785156c12.71875-11.390625 32.128906-12.863282 46.625-4.75-3.6875 4.695312-6.703126 9.992187-8.769532 15.824218l15.082032 5.335938c5.636718-15.945312 20.804687-26.65625 37.726562-26.65625 22.054688 0 40 17.945312 40 40h16c0-13.015625-4.503906-24.976562-11.976562-34.488281 14.503906-8.121094 33.921874-6.65625 46.640624 4.746093l5.335938 4.773438 5.335938-4.785156c7.382812-6.605469 16.847656-10.246094 26.664062-10.246094 22.054688 0 40 17.945312 40 40h16c0-13.015625-4.503906-24.976562-11.976562-34.496094 10.601562-6.023437 23.746093-7.023437 35.054687-2.449218 2.035156 3.648437 4.425781 7.121093 7.265625 10.28125l11.902344-10.6875c-6.605469-7.351563-10.246094-16.824219-10.246094-26.648438 0-5.230469 1.046875-10.265625 2.984375-15.039062 3.671875-2.03125 7.167969-4.441407 10.351563-7.296876l-10.671876-11.910156c-7.382812 6.605469-16.847656 10.246094-26.664062 10.246094-16.921875 0-32.089844-10.710938-37.726562-26.65625l-15.082032 5.335938c2.066406 5.832031 5.074219 11.128906 8.761719 15.824218-14.511719 8.113282-33.90625 6.640625-46.625-4.75l-5.328125-4.785156-5.335938 4.785156c-12.710937 11.382813-32.105468 12.863282-46.625 4.75 3.6875-4.6875 6.695313-9.984375 8.761719-15.808594l-15.082031-5.34375c-5.640625 15.9375-20.808594 26.648438-37.71875 26.648438-9.816406 0-19.28125-3.640625-26.664062-10.246094l-5.335938-4.785156-5.335938 4.785156c-7.382812 6.605469-16.847656 10.246094-26.664062 10.246094-22.054688 0-40-17.945312-40-40 0-14.191406 7.664062-27.457031 20.007812-34.609375l3.992188-2.3125v-65.75l32 19.199219v46.550781l3.992188 2.3125c2.351562 1.363281 4.59375 2.992187 6.664062 4.855469l5.34375 4.785156 5.335938-4.785156c12.726562-11.390625 32.136718-12.863282 46.640624-4.742188-7.472656 9.519532-11.976562 21.480469-11.976562 34.496094h16c0-22.054688 17.945312-40 40-40 9.816406 0 19.28125 3.640625 26.664062 10.246094l5.335938 4.785156 5.335938-4.785156c7.382812-6.605469 16.847656-10.246094 26.664062-10.246094 22.054688 0 40 17.945312 40 40h16c0-13.015625-4.503906-24.976562-11.976562-34.488281 14.519531-8.121094 33.914062-6.648438 46.640624 4.746093l5.335938 4.773438 5.335938-4.785156c7.382812-6.605469 16.847656-10.246094 26.664062-10.246094 22.054688 0 40 17.945312 40 40 0 7.105469-1.9375 13.976562-5.449219 20.023438-9.527343-7.503907-21.511719-12.023438-34.550781-12.023438v16c22.054688 0 40 17.945312 40 40 0 9.824219-3.640625 19.296875-10.246094 26.65625l-4.800781 5.34375zm0 0" data-original="#000000" class="active-path" data-old_color="#2d8dc5" fill="#2d8dc5"/></g> </svg>
