<svg xmlns="http://www.w3.org/2000/svg" viewBox="0 0 312.553 312.553" width="512" height="512"><path d="M302.553 0H10C4.477 0 0 4.478 0 10v292.553c0 5.522 4.477 10 10 10h292.553c5.523 0 10-4.478 10-10V10c0-5.522-4.477-10-10-10zM143.625 173.732c0 18.615-10.434 30.18-27.232 30.18-10.55 0-19.978-5.292-26.547-14.9-2.905-4.25-1.815-10.053 2.436-12.96s10.055-1.814 12.96 2.436c3.074 4.498 6.826 6.778 11.152 6.778 3.42 0 8.586 0 8.586-11.532v-47.467H99.504c-5.15 0-9.323-4.174-9.323-9.323s4.174-9.323 9.323-9.323h34.798c5.15 0 9.323 4.174 9.323 9.323v56.79zM189.44 205.6c-12.5 0-25.25-5.27-33.28-13.753-3.54-3.74-3.377-9.642.362-13.18s9.644-3.377 13.18.362c4.486 4.74 12.417 7.925 19.736 7.925 7.493 0 16.244-2.188 16.244-8.35.048-5.8-3.045-7.986-17.415-12.34-12.677-3.84-31.835-9.642-31.835-31.725 0-16.5 14.306-27.586 35.6-27.586 9.48 0 19.815 2.874 26.975 7.502 4.324 2.795 5.564 8.567 2.77 12.892s-8.568 5.564-12.892 2.77c-4.112-2.658-11.042-4.516-16.852-4.516-7.82 0-16.952 2.342-16.952 8.94 0 7.165 4.19 9.516 18.594 13.88 12.277 3.718 30.83 9.337 30.656 30.262-.001 16.07-14.022 26.92-34.89 26.92z" fill="#eee"/></svg>