<svg xmlns="http://www.w3.org/2000/svg" viewBox="0 0 206.5 206.5" width="512" height="512"><path d="M179.316 62.187l-30.5-60a4 4 0 0 0-2.343-1.996c-1.016-.326-2.12-.232-3.067.26L60.832 43.36C39.81 54.284 26.75 75.788 26.75 99.48V202.5a4 4 0 0 0 4 4h69.563a4 4 0 0 0 4-4v-75.565c0-14.16 7.877-26.872 20.557-33.175l52.66-26.178c.955-.475 1.682-1.313 2.017-2.325s.25-2.12-.232-3.07zM44.66 80.683c1.815-7.592 9.193-12.862 10.028-13.438a4 4 0 0 1 5.532.978l12.715 17.91a4 4 0 0 1-2.073 6.135l-20.645 6.426c-.39.12-.8.18-1.19.18-.66 0-1.313-.163-1.904-.482a4 4 0 0 1-1.944-2.424c-.09-.327-2.247-8.064-.52-15.287zm32.788 49.58V194.5a4 4 0 0 1-4 4H57.842a4 4 0 0 1-4-4v-63.412c-5.333-1.978-9.024-7.073-9.024-13.044 0-7.68 6.247-13.926 13.926-13.926a13.9 13.9 0 0 1 6.907 1.841c2.693-2.81 6.46-4.466 10.413-4.466 7.95 0 14.418 6.468 14.418 14.418 0 7.483-5.73 13.653-13.033 14.352zm81.237-83.026l-56.815 27.86a12.98 12.98 0 0 1 .321 2.867c0 7.188-5.848 13.035-13.035 13.035S76.122 85.15 76.122 77.963c0-1.163.152-2.305.448-3.4-3.818-1.878-6.45-5.81-6.45-10.343 0-6.352 5.167-11.52 11.52-11.52a11.53 11.53 0 0 1 7.523 2.809l59.32-29.086a4 4 0 0 1 3.056-.193c1.004.343 1.83 1.07 2.297 2.024l6.683 13.632a4 4 0 0 1-1.83 5.351z" fill="#2d8dc5"/></svg>