<svg xmlns="http://www.w3.org/2000/svg" width="512" height="512" fill="#2d8dc5"><path d="M316 286.306c-5.52 0-10 4.48-10 10s4.48 10 10 10 10-4.48 10-10-4.48-10-10-10zm-120 0c-5.52 0-10 4.48-10 10s4.48 10 10 10 10-4.48 10-10-4.48-10-10-10zm276.186-26.348c-24.663-42.268-58.922-77.23-99.076-101.108-13.804-8.206-29.75-12.544-46.1-12.544-18.543 0-31-12.726-31-24.6v-65.4c0-5.522-4.477-10-10-10h-60c-5.523 0-10 4.478-10 10v65.4c0 15.026-17.54 24.6-26.7 24.6-15.215 0-31.85 1.52-50.4 12.545-40.152 23.876-74.412 58.84-99.075 101.107C13.768 304.6 0 355.206 0 406.306a316.99 316.99 0 0 0 1.62 32.048c1.632 16.1 15.594 28.12 31.765 27.3 65.798-3.262 114.498-18.383 148.88-46.228 20.53-16.626 36.286-38.166 46.83-64.022C240.313 327.9 246 294.56 246 256.306c0-15.8-1.924-31.5-5.726-46.776A39.79 39.79 0 0 1 256 206.306c5.45 0 10.784 1.102 15.726 3.224-3.802 15.287-5.726 30.985-5.726 46.776 0 38.253 5.687 71.595 16.903 99.098 10.545 25.856 26.3 47.396 46.83 64.022 34.383 27.845 83.083 42.966 148.88 46.228a31.36 31.36 0 0 0 1.529.038c15.52 0 28.655-11.738 30.234-27.33A316.99 316.99 0 0 0 512 406.306c0-51.1-13.768-101.707-39.814-146.348zm18.295 176.38c-.567 5.604-5.228 9.605-10.876 9.34C345.7 439.04 286 380.636 286 256.306a173.74 173.74 0 0 1 7.035-48.963 10 10 0 0 0-4.095-11.169 59.72 59.72 0 0 0-65.88 0 10 10 0 0 0-4.095 11.169A173.74 173.74 0 0 1 226 256.306c0 124.33-59.7 182.734-193.604 189.373-5.622.276-10.3-3.737-10.877-9.35A296.69 296.69 0 0 1 20 406.306c0-93.24 50.68-183.626 129.1-230.264 13.64-8.107 25.488-9.736 40.18-9.736 19.045 0 46.7-17.378 46.7-44.6v-55.4h40v55.4c0 21.454 19.5 44.6 51 44.6 12.766 0 25.176 3.366 35.9 9.734C441.32 222.68 492 313.065 492 406.306a297 297 0 0 1-1.519 30.033zm-302.187-111a10 10 0 0 0-12.794 6.026c-8.068 22.434-21.223 38.986-40.217 50.603-4.7 2.882-6.195 9.037-3.314 13.75 2.878 4.705 9.03 6.197 13.75 3.313 23.034-14.087 38.933-34.007 48.603-60.897 1.868-5.197-.83-10.925-6.027-12.794zm188.414 56.628c-18.997-11.618-32.15-28.17-40.207-50.6a10 10 0 1 0-18.822 6.762c9.66 26.9 25.555 46.8 48.594 60.9 4.7 2.88 10.868 1.397 13.75-3.314s1.397-10.866-3.314-13.748z"/></svg>