<svg xmlns="http://www.w3.org/2000/svg" height="512" viewBox="1 0 511.99925 511" width="512" fill="#2d8dc5"><path d="M256.003906 51.67578c-19.128906 0-34.117187-11.234375-34.117187-25.589843S236.875.5 256.003906.5s34.117188 11.234375 34.117188 25.585938S275.13672 51.67578 256.003906 51.67578zm0-34.117187c-10.414062 0-17.058594 5.046875-17.058594 8.527344s6.644532 8.53125 17.058594 8.53125 17.058594-5.050782 17.058594-8.53125-6.652344-8.527344-17.058594-8.527344zm0 0"/><path d="M51.328125 512.253906c-1.07422 0-2.15625-.054687-3.246094-.15625-12.984375-1.203125-24.453125-9.40625-29.94922-21.40625-24.246093-53.042968-24.179687-123.1875.214844-208.507812 17.98047-62.902344 42.550782-109.804688 43.59375-111.765625 32.007815-69.871094 65.164065-110.171875 98.32422-119.36719 17.125-4.742187 28.453125.625 31.804687 2.585938 17.996094 7.660156 28.992188 23.984375 32.335938 47.66797 2.92578-22.046876 1.953125-47.496094.347656-66.851563-.316406-3.777344 1.902344-7.308594 5.441406-8.671875s7.550782-.214844 9.84375 2.796875c2.285157 3.01172 8.109376 6.039063 15.964844 6.039063s13.683594-3.027344 15.960938-6.03125c2.292968-3.01172 6.285156-4.160157 9.839844-2.796876 3.542968 1.35547 5.757812 4.88672 5.441406 8.675782-1.601563 19.359375-2.57422 44.8125.351562 66.859375 3.335938-23.703125 14.335938-40.01953 32.335938-47.6875 3.359375-1.960938 14.703125-7.328125 31.804687-2.59375 33.125 9.1875 66.253907 49.41797 98.441407 119.589843 2.101562 4.007813 25.929687 50.160157 43.476562 111.550782 24.382812 85.320312 24.460938 155.472656.210938 208.507812-5.492188 12-16.957032 20.203125-29.9375 21.40625-12.238282 1.09375-23.746094-4.152344-30.773438-14.148437l-.679688-1c-3.625-5.5-9.222656-8.765625-15.36328-9.003907-26.36328-.980468-76.01172-9.265624-112.191406-53.660156C264.039062 384.125 252.578125 303.3125 270.85547 194.0625c.945312-5.691406-.367188-11.507812-3.625-15.960938l-11.226563-15.359374-11.222656 15.359374c-3.25 4.453126-4.570312 10.269532-3.625 15.960938 18.277344 109.25 6.82422 190.0625-34.058594 240.222656-36.179687 44.394532-85.828125 52.679688-112.199218 53.660156-6.140626.23047-11.73047 3.503907-15.328126 8.964844l-.734374 1.07422c-6.38672 9.07422-16.503907 14.26953-27.507813 14.26953zM173.714844 66.20703c-2.73047 0-6.01172.402344-9.789063 1.546875-15.6875 4.73047-47.80078 25.347656-86.691406 110.203125-1.1875 2.289063-97.54297 187.617188-43.585937 305.64453 2.953124 6.464844 9.085937 10.875 16 11.523438 6.152343.554688 11.730468-1.976562 15.25-6.976562 6.98828-10.57422 17.80078-16.800782 29.351562-17.238282 23.496094-.886718 67.679688-8.203125 99.621094-47.39453 37.648437-46.1875 47.890625-122.4375 30.45703-226.632813-1.70703-10.183593.726563-20.699218 6.66797-28.835937l18.117187-24.785156c3.20703-4.402344 10.558594-4.402344 13.773438 0l18.117187 24.785156c5.945313 8.14453 8.367188 18.652344 6.671875 28.835937-17.433593 104.195313-7.191406 180.445313 30.45703 226.632813 31.941407 39.191406 76.121094 46.507813 99.613282 47.39453 11.546875.4375 22.371094 6.644532 28.9375 16.625 3.933594 5.613282 9.51953 8.128906 15.667968 7.589844 6.91797-.640625 13.04297-5.058594 15.992188-11.523438 53.964844-118.027343-42.390625-303.355468-43.371094-305.214843-.066406-.148438-.14453-.285157-.203125-.429688-39.371093-85.90625-71.773437-106.085937-87.585937-110.46875-11.839844-3.29297-18.484375.75-18.535156.80078-.496094.34375-1.023438.625-1.578126.85547-19.734374 8.101563-23.667968 31.523438-23.48828 49.75.07422 7.648438-5.33203 13.98828-12.85547 15.04297-7.39453 1.05078-14.164062-3.460938-16.160156-10.695312-6.007812-21.82422-6.55078-49.828126-5.417968-73.527344-8.195313 2.546875-18.10547 2.546875-26.304688 0 1.13672 23.699218.597656 51.703125-5.414062 73.527344-1.996094 7.234374-8.769532 11.71875-16.15625 10.695312-7.523438-1.054688-12.929688-7.382812-12.851563-15.04297.179687-18.226562-3.753906-41.648437-23.492187-49.75-.550782-.222656-1.082032-.51172-1.57422-.85547-.09375-.05078-3.472657-2.08203-9.640625-2.08203zM51.304688 358.726562c-4.707032 0-8.53125-3.8125-8.53125-8.527343s3.824218-8.53125 8.53125-8.53125c19.003906 0 32.95703-4.98047 41.476562-14.804688 12.367188-14.26172 9.816406-34.964843 9.785156-35.160156-.0625-.398437-.085937-.808594-.085937-1.210937v-42.644532c0-17.699218 8.914062-51.17578 42.64453-51.17578 1.578125-.085937 17.058594-1.757813 17.058594-34.117187 0-4.714844 3.820312-8.527344 8.53125-8.527344s8.527344 3.8125 8.527344 8.527344c0 50.59375-33.773438 51.17578-34.117188 51.17578-25.296875 0-25.585938 32.726562-25.585938 34.117187v42.125c.51172 4.519532 2.421876 29.28125-13.871093 48.0625-11.90625 13.73047-30.19922 20.691406-54.36328 20.691406zm8.519532 85.292968c-1.277344 0-2.58203-.289062-3.8125-.898437-4.210938-2.10547-5.91797-7.23047-3.8125-11.445313.79297-1.585937 19.76953-38.83203 50.28125-38.83203 23.703125 0 39.94922-5.996094 48.30078-17.816406 13.117188-18.585938 3.472656-47.277344 3.367188-47.558594-5.703126-17.121094-4.54297-31.296875 3.378906-42.296875 14.441406-20.035156 45.964844-20.265625 47.304687-20.265625 4.70703 0 8.527344 3.8125 8.527344 8.527344s-3.820313 8.53125-8.527344 8.53125c-6.6875.03125-25.777343 2.464844-33.496093 13.21875-4.519532 6.292968-4.878907 15.292968-1.066407 26.730468.476563 1.347657 12.80078 36.933594-5.5625 62.953126-11.726562 16.617187-32.65625 25.035156-62.226562 25.035156-19.76172 0-34.867188 29.109375-35.01172 29.398437-1.503906 2.996094-4.51172 4.71875-7.64453 4.71875zm0 0"/><path d="M102.48047 409.902344c-4.70703 0-8.53125-3.8125-8.53125-8.53125 0-9.40625-7.648438-17.058594-17.058594-17.058594-4.70703 0-8.527344-3.8125-8.527344-8.527344s3.820313-8.53125 8.527344-8.53125c18.816406 0 34.117187 15.304688 34.117187 34.117188 0 4.71875-3.820312 8.53125-8.527343 8.53125zM76.890625 307.55078c-4.70703 0-8.527344-3.8125-8.527344-8.527343 0-23.515626 19.128907-42.648438 42.64453-42.648438 4.710938 0 8.53125 3.8125 8.53125 8.53125s-3.820312 8.527344-8.53125 8.527344c-14.105468 0-25.585937 11.480468-25.585937 25.589844 0 4.714843-3.820313 8.527343-8.53125 8.527343zm93.82422-59.703124c-18.816406 0-34.117188-19.132812-34.117188-42.648437 0-4.714844 3.820313-8.527344 8.527344-8.527344s8.53125 3.8125 8.53125 8.527344c0 13.871093 7.8125 25.589843 17.058594 25.589843 4.70703 0 8.527344 3.8125 8.527344 8.527344s-3.820313 8.53125-8.527344 8.53125zM460.70703 358.726562c-24.164062 0-42.45703-6.960937-54.367187-20.691406-16.289063-18.78125-14.378906-43.535156-13.867188-48.0625v-42.125c-.007812-1.375-.484375-34.117187-25.585937-34.117187-.34375 0-34.117188-.58203-34.117188-51.17578 0-4.714844 3.820313-8.527344 8.527344-8.527344s8.53125 3.8125 8.53125 8.527344c0 32.359374 15.48047 34.03125 17.246094 34.117187 33.54297 0 42.45703 33.476563 42.45703 51.17578v42.644532c0 .402343-.027344.8125-.085938 1.210937-.015624.179687-2.652343 20.929687 9.878907 35.26953 8.527343 9.757813 22.44922 14.703125 41.382812 14.703125 4.70703 0 8.527344 3.8125 8.527344 8.53125s-3.820313 8.51953-8.527344 8.51953zm0 0"/><path d="M452.1875 444.01172c-3.125 0-6.132812-1.714844-7.63672-4.691407-4.125-8.1875-18.45703-29.417968-35.01953-29.417968-29.570312 0-50.51172-8.41797-62.23047-25.04297-18.371093-26.023437-6.039062-61.61328-5.507812-63.10547 3.76172-11.292968 3.39453-20.308594-1.14453-26.605468-9.246094-12.828126-33.23047-13.183594-33.46875-13.183594-4.707032 0-8.527344-3.8125-8.527344-8.53125s3.820312-8.527344 8.527344-8.527344c1.339843 0 32.86328.23047 47.304687 20.265625 7.929687 11 9.08203 25.17578 3.4375 42.132813-.15625.42578-9.9375 29.035156 3.359375 47.789062 8.351562 11.777344 24.58203 17.75 48.25 17.75 30.507812 0 49.476562 37.246094 50.28125 38.83203 2.10547 4.20703.398438 9.32422-3.804688 11.429688-1.23828.61328-2.535156.90625-3.820312.90625zm0 0"/><path d="M409.53125 409.902344c-4.70703 0-8.527344-3.8125-8.527344-8.53125 0-18.8125 15.300782-34.117188 34.113282-34.117188 4.710937 0 8.53125 3.8125 8.53125 8.53125s-3.820313 8.527344-8.53125 8.527344c-9.40625 0-17.058594 7.652344-17.058594 17.058594 0 4.71875-3.820313 8.53125-8.527344 8.53125zm25.585938-102.351564c-4.707032 0-8.527344-3.8125-8.527344-8.527343 0-14.109376-11.48047-25.589844-25.585938-25.589844-4.710937 0-8.53125-3.8125-8.53125-8.527344s3.820313-8.53125 8.53125-8.53125c23.51172 0 42.644532 19.132812 42.644532 42.648438 0 4.714843-3.820313 8.527343-8.53125 8.527343zm-93.820313-59.703124c-4.70703 0-8.527344-3.8125-8.527344-8.53125s3.820313-8.527344 8.527344-8.527344c9.246094 0 17.058594-11.71875 17.058594-25.589843 0-4.714844 3.820312-8.527344 8.53125-8.527344s8.527343 3.8125 8.527343 8.527344c0 23.515625-15.308593 42.648437-34.117187 42.648437zm0 0"/></svg>