<svg xmlns="http://www.w3.org/2000/svg" viewBox="0 0 512 512"><path d="M396.44 494.006l-53.706-53.713c-1.876-1.875-4.42-2.93-7.07-2.93l-29.018.04c-15.906 0-31.84-2.925-46.753-8.506l17.3-11.595c7.078-4.746 11.837-11.973 13.402-20.35a31.22 31.22 0 0 0-5.154-23.818c-6.078-8.68-15.866-13.392-25.832-13.392l-.487.004 39.83-39.83c12.083-12.084 12.083-31.746 0-43.83-2.94-2.94-6.367-5.215-10.1-6.753a30.8 30.8 0 0 0 4.245-15.672c0-8.278-3.224-16.062-9.077-21.916a30.79 30.79 0 0 0-21.916-9.078c-5.6 0-10.97 1.48-15.672 4.246-1.538-3.732-3.813-7.16-6.753-10.1a30.79 30.79 0 0 0-43.832 0l-14.3 14.3c-1.52-3.35-3.642-6.44-6.322-9.12-5.854-5.854-13.637-9.077-21.916-9.077a30.79 30.79 0 0 0-21.916 9.077l-6.34 6.34L99.27 202.7c-7.486-7.486-7.486-19.667 0-27.153 7.013-7.013 18.145-7.455 25.678-1.33l24.958 24.96a9.97 9.97 0 0 0 14.141.001c3.905-3.905 3.905-10.237 0-14.142L120.99 141.98c-7.486-7.487-7.486-19.668 0-27.154s19.668-7.486 27.154 0l75.437 75.582a9.97 9.97 0 0 0 14.141.001c3.905-3.905 3.905-10.237 0-14.142l-57.34-57.485c-6.125-7.534-5.682-18.665 1.33-25.677 7.487-7.486 19.67-7.486 27.154 0l21.008 21a10 10 0 0 0 14.142-14.142l-21.008-21c-15.285-15.284-40.154-15.283-55.438 0-5.05 5.05-8.42 11.15-10.134 17.604-6.62-4.778-14.545-7.363-22.87-7.363-10.47 0-20.315 4.078-27.72 11.48-13.758 13.758-15.124 35.28-4.114 50.6-6.454 1.712-12.556 5.083-17.608 10.135-14.424 14.425-15.228 37.382-2.427 52.767a38.94 38.94 0 0 0-17.221 10.031c-15.283 15.284-15.283 40.153 0 55.438l4.463 4.463c-16.875 20.262-26.046 45.543-26.008 72.24l.024 16.564-41.03 41.034c-3.905 3.905-3.905 10.237 0 14.143A9.97 9.97 0 0 0 10 431.025a9.97 9.97 0 0 0 7.071-2.929l43.966-43.967a10 10 0 0 0 2.929-7.086l-.03-20.715c-.036-24.854 9.625-48.223 27.2-65.798l54.387-54.388c2.076-2.077 4.836-3.22 7.773-3.22s5.697 1.143 7.773 3.22a10.92 10.92 0 0 1 3.22 7.773 10.9 10.9 0 0 1-2.402 6.85l-13.22 13.22c-3.905 3.905-3.905 10.237 0 14.143.01.01.02.016.027.025s.016.018.025.027a9.97 9.97 0 0 0 14.142 0l47.114-47.22c2.076-2.077 4.836-3.22 7.773-3.22a10.92 10.92 0 0 1 7.773 3.22c4 4 4.26 10.308.82 14.62l-47.988 48.093c-3.905 3.905-3.905 10.237 0 14.143a9.97 9.97 0 0 0 14.142 0l61.82-61.924c2.076-2.077 4.836-3.22 7.773-3.22a10.92 10.92 0 0 1 7.773 3.22 11.01 11.01 0 0 1 0 15.546l-61.923 61.818c-3.905 3.905-3.906 10.237 0 14.143a10 10 0 0 0 14.142 0l48.094-47.988c4.3-3.44 10.63-3.17 14.62.822 4.286 4.285 4.286 11.26 0 15.545l-67.515 67.517c-4.756 4.755-5.196 12.047-1.045 17.34s11.338 6.603 17.1 3.116l20.397-12.365a11.48 11.48 0 0 1 15.32 3.225 11.37 11.37 0 0 1-3.003 16.085l-47.2 31.644a92.54 92.54 0 0 1-51.722 15.736h-.13l-32.05-.046a10.01 10.01 0 0 0-7.085 2.929l-43.967 43.967c-3.905 3.905-3.905 10.237 0 14.143a9.97 9.97 0 0 0 14.142 0l41.032-41.032 28.06.04a112.48 112.48 0 0 0 62.86-19.125l10.105-6.776a153.92 153.92 0 0 0 66.546 15.233h.218l24.664-.035 50.776 50.776a9.97 9.97 0 0 0 14.142 0c3.905-3.905 3.905-10.237 0-14.143zm-292.084-244.98l-20.608 20.608-4.123-4.123c-7.486-7.487-7.486-19.668 0-27.154 7.013-7.013 18.145-7.455 25.678-1.33l5.526 5.526-6.473 6.473zM509.07 381.382c-1.86-1.87-4.44-2.93-7.07-2.93a10.05 10.05 0 0 0-7.07 2.93 10.06 10.06 0 0 0-2.93 7.07c0 2.63 1.07 5.2 2.93 7.07a10.08 10.08 0 0 0 7.07 2.931c2.63 0 5.2-1.07 7.07-2.93 1.86-1.87 2.93-4.44 2.93-7.07 0-2.64-1.07-5.2-2.93-7.07zm-26.9-26.894l-23.886-23.886.058-40.432c.043-30.548-8.926-60.105-25.94-85.477l-44.015-65.638c-6.012-8.966-15.167-14.995-25.778-16.977s-21.325.337-30.167 6.53c-14.488 10.145-20.25 28.45-15.126 44.675l-26.135-26.136c-3.905-3.904-10.237-3.904-14.143 0s-3.905 10.237 0 14.143l56.144 56.144c5.194 5.194 13.16 5.675 18.94 1.14s7.212-12.385 3.403-18.668l-17.2-28.372c-5.4-8.908-2.946-20.567 5.587-26.542a19.69 19.69 0 0 1 27.862 5.205l44.015 65.638a132.62 132.62 0 0 1 22.551 74.309l-.063 44.582a10 10 0 0 0 2.929 7.086l26.82 26.82a9.97 9.97 0 0 0 14.142 0c3.905-3.905 3.905-10.237 0-14.143zm-214.5-230.846c-1.85-1.86-4.43-2.93-7.06-2.93a10.1 10.1 0 0 0-7.08 2.93c-1.86 1.86-2.93 4.44-2.93 7.07a10.06 10.06 0 0 0 2.93 7.07 10.1 10.1 0 0 0 7.08 2.93c2.63 0 5.2-1.07 7.06-2.93 1.87-1.86 2.94-4.44 2.94-7.07a10.06 10.06 0 0 0-2.94-7.07zm92.805 155.182c3.905-3.905 3.905-10.237 0-14.143s-10.237-3.904-14.143 0l-4.362 4.362c-18.674 18.675-18.674 49.06 0 67.735a9.97 9.97 0 0 0 14.142 0c3.905-3.905 3.906-10.237 0-14.143-10.876-10.876-10.876-28.574 0-39.45l4.363-4.36zM477.3 54.002c-6.357 0-12.57 1.804-17.944 5.103-5.373-3.3-11.587-5.103-17.944-5.103-19.134 0-34.7 15.852-34.7 35.335 0 11.042 7.94 24.303 24.27 40.543 10.996 10.934 21.843 19.256 22.3 19.605a9.98 9.98 0 0 0 6.074 2.056c2.14 0 4.28-.685 6.074-2.056.457-.35 11.304-8.672 22.3-19.605 16.33-16.24 24.27-29.5 24.27-40.543 0-19.484-15.567-35.335-34.7-35.335zm-17.947 74.746c-16.712-13.88-32.642-31.6-32.642-39.4 0-8.456 6.595-15.335 14.7-15.335 4.032 0 7.794 1.67 10.594 4.707a10 10 0 0 0 14.7 0c2.8-3.035 6.562-4.707 10.594-4.707 8.106 0 14.7 6.88 14.7 15.335 0 7.8-15.935 25.516-32.648 39.4zM70.6.003c-6.357 0-12.57 1.804-17.944 5.103C47.272 1.807 41.058.003 34.7.003 15.567.002 0 15.853 0 35.337 0 46.38 7.94 59.64 24.27 75.88c10.996 10.934 21.844 19.257 22.3 19.606a9.98 9.98 0 0 0 6.074 2.056c2.14 0 4.28-.685 6.074-2.056.457-.35 11.304-8.672 22.3-19.605 16.332-16.24 24.27-29.5 24.27-40.543C105.3 15.854 89.723.003 70.6.003zM52.642 74.748C35.93 60.868 20 43.16 20 35.337c0-8.456 6.595-15.335 14.7-15.335 4.032 0 7.794 1.67 10.594 4.707a10 10 0 0 0 14.7 0c2.8-3.035 6.562-4.707 10.594-4.707 8.106 0 14.7 6.88 14.7 15.335 0 7.8-15.935 25.516-32.648 39.4z"/></svg>