<svg xmlns="http://www.w3.org/2000/svg" viewBox="0 0 512 512"><path d="M72.4 336H36.9c-5.3 0-9.5 4.3-9.5 9.5v24.6c0 5.3 4.3 9.5 9.5 9.5h20.5c-.1-1.4-.2-2.7-.2-4.1 0-14.7 5.6-28.8 15.2-39.5zm271.7 0H161.2c9.6 10.8 15.1 24.8 15.1 39.6 0 1.4-.1 2.7-.1 4.1h152.9c-.1-1.3-.1-2.7-.1-4.1-.1-14.8 5.5-28.9 15.1-39.6zm88.8 0c9.6 10.8 15.1 24.8 15.1 39.6 0 1.3-.1 2.7-.2 4.1h28.5c4.6 0 8.4-3.7 8.4-8.4v-27c0-4.6-3.7-8.4-8.4-8.4h-43.4zm-293.7 0c-6.6-3.8-14.3-5.9-22.4-5.9-8.2 0-15.8 2.1-22.4 5.9-13.8 7.8-23.1 22.6-23.1 39.6 0 1.4.1 2.7.2 4.1 2 23.3 21.6 41.5 45.4 41.5s43.3-18.2 45.3-41.5c.1-1.3.2-2.7.2-4.1-.1-17-9.4-31.8-23.2-39.6zm-5.1 43.7c-1.8 7.9-8.9 13.7-17.3 13.7s-15.5-5.9-17.3-13.7c-.3-1.3-.5-2.7-.5-4.1 0-9.8 8-17.8 17.8-17.8s17.8 8 17.8 17.8c-.1 1.4-.2 2.8-.5 4.1zM410.9 336c-6.6-3.8-14.3-5.9-22.4-5.9s-15.8 2.1-22.4 5.9c-13.8 7.8-23.1 22.6-23.1 39.6 0 1.4.1 2.7.2 4.1 2.1 23.3 21.6 41.5 45.4 41.5s43.3-18.2 45.4-41.5c.1-1.3.2-2.7.2-4.1-.2-17-9.5-31.8-23.3-39.6zm-5.1 43.7c-1.8 7.9-8.9 13.7-17.3 13.7s-15.5-5.9-17.3-13.7c-.3-1.3-.5-2.7-.5-4.1 0-9.8 8-17.8 17.8-17.8s17.8 8 17.8 17.8c0 1.4-.2 2.8-.5 4.1zM176 90.9c-11.3 0-21.2 12.4-26.2 21.7h52.4c-4.9-9.3-14.8-21.7-26.2-21.7zM441.1 223h-30.9l-6.2-39.9c-1.5-9.8-9.9-16.9-19.8-16.9h-60.6V322h143.7v-15h-.5c-5.7 0-10.3-4.6-10.3-10.3s4.6-10.3 10.3-10.3h.5v-37.1c0-14.6-11.7-26.3-26.2-26.3zm-98.1 0v-29.8h41.4l4.7 29.8H343z" fill="#1b3954"/><path d="M267.7 284.1h41.9V126.6H42.5V322h267.1v-23.8h-41.9c-3.9 0-7-3.1-7-7s3.1-7.1 7-7.1zm-64.7 8.5h-54v-34.3h-34.3v-54H149V170h54v34.3h34.3v54H203v34.3zm45.8-.1c-.1.5-.2.9-.4 1.3l-.6 1.2-.9 1.1c-.3.3-.7.6-1.1.9s-.8.5-1.2.6c-.4.2-.9.3-1.3.4-.5.1-.9.1-1.4.1s-.9-.1-1.4-.1c-.5-.1-.9-.2-1.3-.4l-1.2-.6-1.1-.9c-.3-.3-.6-.7-.9-1.1s-.5-.8-.6-1.2c-.2-.4-.3-.9-.4-1.3-.1-.5-.1-.9-.1-1.4 0-1.9.7-3.7 2.1-5 .3-.3.7-.6 1.1-.9s.8-.5 1.2-.7.9-.3 1.3-.4a6.15 6.15 0 0 1 2.7 0c.4.1.9.2 1.3.4s.8.4 1.2.7.7.5 1.1.9c1.3 1.3 2.1 3.1 2.1 5-.1.5-.1 1-.2 1.4z" fill="#16ade1"/></svg>