<svg xmlns="http://www.w3.org/2000/svg" width="512" height="512" fill="#2d8dc5"><path d="M379.23 303.853L345.404 76.578C338.76 32.32 300.708 0 256 0c-44.77 0-82.768 32.373-89.407 76.596L132.77 303.853C91.668 312.34 61 348.935 61 392c0 49.622 40.383 90 90 90h38.605c5.5 4.832 26.456 30 66.395 30 37.662 0 56.83-21.585 66.395-30H361c49.625 0 90-40.386 90-90 0-43.065-30.668-79.66-71.77-88.147zm12.45 139.683c-32-12.33-68.592-4.84-93.198 19.768C297.72 463.83 282.6 482 256 482c-27.054 0-41.487-18-42.48-18.694-24.608-24.608-61.2-32.1-93.2-19.77C102.777 433.053 91 413.88 91 392c0-31.485 24.575-57.782 55.948-59.866a15 15 0 0 0 13.843-12.759L196.264 81.03c1.86-12.386 7.357-23.34 15.326-31.9C213.386 55.404 219.15 60 226 60c8.284 0 15-6.716 15-15 0-8.182 6.6-14.592 15-14.592s15 6.4 15 14.592c0 8.284 6.716 15 15 15 6.85 0 12.616-4.597 14.4-10.87 7.968 8.557 13.465 19.505 15.323 31.883L351.2 319.375c1.04 6.98 6.802 12.3 13.843 12.76C396.425 334.218 421 360.515 421 392c0 21.88-11.777 41.053-29.32 51.536zM286 362c-8.284 0-15 6.716-15 15a15.02 15.02 0 0 1-15 15 15.02 15.02 0 0 1-15-15c0-8.284-6.716-15-15-15s-15 6.716-15 15c0 24.813 20.187 45 45 45s45-20.187 45-45c0-8.284-6.716-15-15-15zm-60-30c8.284 0 15-6.716 15-15v-30c0-8.284-6.716-15-15-15s-15 6.716-15 15v30c0 8.284 6.716 15 15 15zm0-90c8.284 0 15-6.716 15-15v-31c0-8.284-6.716-15-15-15s-15 6.716-15 15v31c0 8.284 6.716 15 15 15zm0-91c8.284 0 15-6.716 15-15v-31c0-8.284-6.716-15-15-15s-15 6.716-15 15v31c0 8.284 6.716 15 15 15zm60 121c-8.284 0-15 6.716-15 15v30c0 8.284 6.716 15 15 15s15-6.716 15-15v-30c0-8.284-6.716-15-15-15zm0-91c-8.284 0-15 6.716-15 15v31c0 8.284 6.716 15 15 15s15-6.716 15-15v-31c0-8.284-6.716-15-15-15zm0-91c-8.284 0-15 6.716-15 15v31c0 8.284 6.716 15 15 15s15-6.716 15-15v-31c0-8.284-6.716-15-15-15z"/></svg>