<?xml version="1.0"?>
<svg xmlns="http://www.w3.org/2000/svg" xmlns:xlink="http://www.w3.org/1999/xlink" version="1.1" id="Capa_1" x="0px" y="0px" viewBox="0 0 512 512" style="enable-background:new 0 0 512 512;" xml:space="preserve" width="512px" height="512px"><g><g>
	<path d="M379.229,303.853L345.404,76.578C338.76,32.32,300.708,0,256,0c-44.771,0-82.768,32.373-89.407,76.596l-33.822,227.257   C91.668,312.341,61,348.935,61,392c0,49.622,40.383,90,90,90h38.605c5.491,4.832,26.456,30,66.395,30   c37.662,0,56.83-21.585,66.395-30H361c49.625,0,90-40.386,90-90C451,348.935,420.332,312.341,379.229,303.853z M391.68,443.536   c-32.01-12.331-68.592-4.839-93.198,19.768C297.719,463.83,282.609,482,256,482c-27.054,0-41.487-18.01-42.481-18.694   c-24.608-24.608-61.19-32.101-93.199-19.77C102.777,433.053,91,413.879,91,392c0-31.485,24.575-57.782,55.948-59.866   c7.041-0.468,12.804-5.779,13.843-12.759l35.473-238.344c1.859-12.386,7.357-23.34,15.326-31.899C213.386,55.404,219.151,60,226,60   c8.284,0,15-6.716,15-15c0-8.182,6.589-14.592,15-14.592s15,6.41,15,14.592c0,8.284,6.716,15,15,15   c6.85,0,12.616-4.597,14.411-10.871c7.968,8.557,13.465,19.505,15.323,31.883l35.476,238.363   c1.039,6.979,6.802,12.291,13.843,12.759C396.425,334.218,421,360.515,421,392C421,413.879,409.223,433.053,391.68,443.536z" data-original="#000000" class="active-path" data-old_color="#2d8dc5" fill="#2d8dc5"/>
	<path d="M286,362c-8.284,0-15,6.716-15,15c0,8.271-6.729,15-15,15s-15-6.729-15-15c0-8.284-6.716-15-15-15s-15,6.716-15,15   c0,24.813,20.187,45,45,45s45-20.187,45-45C301,368.716,294.284,362,286,362z" data-original="#000000" class="active-path" data-old_color="#2d8dc5" fill="#2d8dc5"/>
	<path d="M226,332c8.284,0,15-6.716,15-15v-30c0-8.284-6.716-15-15-15s-15,6.716-15,15v30C211,325.284,217.716,332,226,332z" data-original="#000000" class="active-path" data-old_color="#2d8dc5" fill="#2d8dc5"/>
	<path d="M226,242c8.284,0,15-6.716,15-15v-31c0-8.284-6.716-15-15-15s-15,6.716-15,15v31C211,235.284,217.716,242,226,242z" data-original="#000000" class="active-path" data-old_color="#2d8dc5" fill="#2d8dc5"/>
	<path d="M226,151c8.284,0,15-6.716,15-15v-31c0-8.284-6.716-15-15-15s-15,6.716-15,15v31C211,144.284,217.716,151,226,151z" data-original="#000000" class="active-path" data-old_color="#2d8dc5" fill="#2d8dc5"/>
	<path d="M286,272c-8.284,0-15,6.716-15,15v30c0,8.284,6.716,15,15,15s15-6.716,15-15v-30C301,278.716,294.284,272,286,272z" data-original="#000000" class="active-path" data-old_color="#2d8dc5" fill="#2d8dc5"/>
	<path d="M286,181c-8.284,0-15,6.716-15,15v31c0,8.284,6.716,15,15,15s15-6.716,15-15v-31C301,187.716,294.284,181,286,181z" data-original="#000000" class="active-path" data-old_color="#2d8dc5" fill="#2d8dc5"/>
	<path d="M286,90c-8.284,0-15,6.716-15,15v31c0,8.284,6.716,15,15,15s15-6.716,15-15v-31C301,96.716,294.284,90,286,90z" data-original="#000000" class="active-path" data-old_color="#2d8dc5" fill="#2d8dc5"/>
</g></g> </svg>
