<svg xmlns="http://www.w3.org/2000/svg" xmlns:xlink="http://www.w3.org/1999/xlink" width="972" height="662" viewBox="0 0 971.44 662"><defs><linearGradient id="A" x1="178.28" y1="633.99" x2="299.74" y2="633.99" gradientUnits="userSpaceOnUse"><stop offset="0" stop-color="gray" stop-opacity=".25"/><stop offset=".54" stop-color="gray" stop-opacity=".12"/><stop offset="1" stop-color="gray" stop-opacity=".1"/></linearGradient><linearGradient id="B" x1="979.45" y1="738.59" x2="979.45" y2="646.78" xlink:href="#A"/><linearGradient id="C" x1="600.65" y1="650.11" x2="600.65" y2="119" xlink:href="#A"/><linearGradient id="D" x1="485.72" y1="615.6" x2="485.72" y2="377.7" xlink:href="#A"/><path id="E" d="M892.86 546.74a19.46 19.46 0 0 0-13.76 33.22 19.46 19.46 0 0 0 33.22-13.76c0-10.747-8.713-19.46-19.46-19.46zm0 31.43c-6.627 0-12-5.373-12-12s5.373-12 12-12 12 5.373 12 12a12 12 0 0 1-12 12.01z"/></defs><path d="M299,604.11a23.58,23.58,0,0,0-9.35-25c-2.06-1.39-4.36-2.45-6.26-4.05-3.17-2.67-5-6.6-6.28-10.53-3.14-9.42-4.13-20-9.63-28.51-5-7.75-14.76-10-23.41-10.79-3.15-.28-6.46-.43-9.34.88-4.82,2.18-7.12,7.87-7.34,13.16s1.16,10.5,1.5,15.78-.6,11.09-4.49,14.67-9.47,4-14.64,4.72a96.94,96.94,0,0,0-19.84,4.93c-5.39,2-11.4,5.51-11.65,11.23-.21,4.68,3.57,8.42,6.41,12.15,5.31,7,8,16.16,6.16,24.73s-8,16.21-9.07,25.05a10.88,10.88,0,0,0,.89,6.62A12.11,12.11,0,0,0,186,662.7c3.33,2.57,7,4.64,10.2,7.43,6.57,5.82,10.13,14.27,12.87,22.61.26.8.5,1.62.75,2.42h-6.46A24,24,0,0,0,179.49,719h0a24,24,0,0,0,23.89,23.89h64.5A24,24,0,0,0,291.77,719h0a24,24,0,0,0-23.89-23.89H250.2c4.18-5.6,8.55-10.86,15-13s14.26-.89,19.32-5.39a15.15,15.15,0,0,0,4.39-8.69,25.87,25.87,0,0,0-2.83-17.18c-2-3.63-5-6.92-5.65-11-.55-3.51.72-7.07,2.44-10.19C287.75,620.79,296.38,613.9,299,604.11Z" transform="translate(-114.28 -119)" fill="url(#A)" opacity=".7"/><path d="M129.56 411.42c-3-.27-6.15-.4-8.9.84-4.6 2.08-6.78 7.5-7 12.53s1.1 10 1.43 15-.57 10.56-4.28 14-9 3.8-13.94 4.5A92.32 92.32 0 0 0 77.99 463c-5.13 1.87-10.85 5.24-11.1 10.7-.2 4.46 3.4 8 6.1 11.57 5.06 6.64 7.58 15.4 5.86 23.55s-7.58 15.44-8.64 23.86a10.36 10.36 0 0 0 .85 6.3 11.53 11.53 0 0 0 3.19 3.38c3.17 2.45 6.7 4.42 9.7 7.08 6.26 5.54 9.64 13.6 12.26 21.53a174.35 174.35 0 0 1 6 23.87c5.4-3.47 12.36-3.42 18.1-6.24 12.25-6 16.37-23.4 29.3-27.73 6.12-2 13.58-.85 18.4-5.13a14.42 14.42 0 0 0 4.18-8.27 24.64 24.64 0 0 0-2.7-16.36c-1.93-3.46-4.77-6.6-5.38-10.5-.53-3.35.7-6.73 2.32-9.7 4.65-8.45 12.87-15 15.38-24.33a22.46 22.46 0 0 0-8.9-23.81 66.35 66.35 0 0 1-6-3.86c-3-2.54-4.73-6.3-6-10-3-9-3.93-19-9.17-27.15-4.7-7.44-13.98-9.6-22.22-10.33z" fill="#4db6ac"/><path d="M129.47 411.73s11.37 152.4-18.2 178.57" fill="none" stroke="#535461" stroke-miterlimit="10" opacity=".6"/><rect x="68.05" y="573.24" width="106.92" height="45.5" rx="15.2" fill="#0c6e90"/><path d="M66.92 470.87s29.08-3.4 64.6 18.2m-.58 18.2s16.16-26.73 50.86-31.84M69.72 532.86s40.3-6.83 58.83 4.55M126.3 553s21.1-9.57 44.84-1.8" opacity=".6" fill="none" stroke="#535461" stroke-miterlimit="10"/><path d="M1009.77,663.18V646.78h-82v75.82a16,16,0,0,0,16,16h50a16,16,0,0,0,16-16V705.8a21.31,21.31,0,1,0,0-42.62Zm0,34.43V671.38a13.12,13.12,0,1,1,0,26.23Z" transform="translate(-114.28 -119)" fill="url(#B)" opacity=".7"/><use xlink:href="#E" fill="#0c6e90"/><use xlink:href="#E" opacity=".1"/><path d="M818 531.78h74.84a0 0 0 0 1 0 0v74.07a9.75 9.75 0 0 1-9.75 9.75h-55.32a9.75 9.75 0 0 1-9.75-9.75v-74.07a0 0 0 0 1-.02 0z" fill="#0c6e90"/><path fill="#e0e0e0" d="M0 615.6h971.44v32.93H0z"/><path d="M753.25 514.26c-10.4-37.8-69.44-65.4-113.85-71.5v-33.18h.14v-1.27a110.94 110.94 0 0 0 67-70.23 119.88 119.88 0 0 0 7.15-15.42c4.74-1.73 8.32-9.54 8.32-18.94a33.07 33.07 0 0 0-1.34-9.5 121.53 121.53 0 0 0 .89-14.42 120.18 120.18 0 0 0-39.7-89.38 23.45 23.45 0 0 0 .38-5.88c-1-15.53-17.6-26.08-33.13-26.78a32.8 32.8 0 0 0 5.53-34.64c-9.9 14.44-30.26 16-47.77 16.1 7.56-2.93 11-13.4 6.56-20.2-18.3 24.53-54 29.08-75.76 50.6a63.86 63.86 0 0 0-11.78 16.07 120.24 120.24 0 0 0-45.32 94.13 121.56 121.56 0 0 0 .87 14.29 33 33 0 0 0-1.38 9.63c0 9.44 3.6 17.28 8.4 19a119.88 119.88 0 0 0 7.18 15.47 110.92 110.92 0 0 0 66.54 70v34.58c-44.58 6-104.08 33.83-114.4 71.92L424.6 604.9c40.57 28.5 125.7 45.24 179 45.24 50.7 0 133.53-15.1 172.9-41.06-4.16-23.36-13.97-61.1-23.27-94.83z" transform="translate(-114.28 -119)" fill="url(#C)" opacity=".7"/><path d="M489.33 521.72c48.9 0 128.8-14.57 166.8-39.6-4.1-22.48-13.58-58.87-22.55-91.43-11.42-41.47-83.53-70.22-126.54-70.22H465.6c-43.15 0-115.35 28.9-126.63 70.56l-22.34 87.05c39.1 27.5 121.25 43.65 172.7 43.65z" fill="#0c6e90"/><circle cx="486.81" cy="164.5" r="116.24" fill="#72351c"/><path d="M449.3 261.3h74.48a0 0 0 0 1 0 0v59.58a37.24 37.24 0 0 1-74.48 0V261.3a0 0 0 0 1 0 0z" opacity=".1"/><path d="M460 258.55h53.1a10.68 10.68 0 0 1 10.68 10.68v48.9a37.24 37.24 0 0 1-74.48 0v-48.9A10.68 10.68 0 0 1 460 258.55z" fill="#fda57d"/><path d="M449.43 289.43a107.19 107.19 0 0 0 74.48.21v-9.15h-74.48z" opacity=".1"/><circle cx="486.81" cy="187.67" r="106.75" fill="#fda57d"/><path d="M410.72 90.56s45 91.32 171.9 38.27l-29.5-46.32-52.4-18.8z" opacity=".1"/><g fill="#72351c"><path d="M410.72 89.22s45 91.32 171.9 38.27l-29.5-46.33-52.4-18.8z"/><path d="M410.37 83.05a61.67 61.67 0 0 1 15.29-24.86c21-20.76 55.42-25.14 73.08-48.8 4.24 6.57 1 16.67-6.33 19.5 16.9-.1 36.52-1.6 46.08-15.52a31.64 31.64 0 0 1-5.34 33.41c15 .68 31 10.86 32 25.83.65 10-5.6 19.43-13.8 25.15s-18.12 8.35-27.9 10.5c-28.54 6.3-131.73 32.64-113.08-25.2zm183.2 105.55h-2.84l-55.06 49c-53-24.85-92 0-92 0l-57.75-47-5.82.73c1.595 58.333 49.735 104.576 108.085 103.824S593.46 246.935 593.55 188.58zm-106.92 67.82c-20.77 0-37.6-4.2-37.6-9.4s16.84-9.4 37.6-9.4 37.6 4.2 37.6 9.4-16.83 9.4-37.6 9.4z"/></g><g fill="#fda57d"><ellipse cx="380.01" cy="187.57" rx="9.93" ry="18.62"/><ellipse cx="593.55" cy="187.57" rx="9.93" ry="18.62"/></g><rect x="279.16" y="377.7" width="413.12" height="237.89" rx="14.5" fill="url(#D)" opacity=".7"/><rect x="286.64" y="382.09" width="398.16" height="233.5" rx="26.84" fill="#535461"/><circle cx="485.72" cy="498.85" r="13.47" fill="#fff"/><path fill="#e0e0e0" d="M41.16 648.53h889.1V662H41.16z"/><path opacity=".1" d="M41.16 648.53h889.1v4.5H41.16zM879.4 531.78V601c0 8.058-6.532 14.6-14.6 14.6h7.48a14.59 14.59 0 0 0 14.59-14.6v-69.22z"/><path d="M832.78 476c-1.26.22-2.7.56-3.3 1.68-1 1.78.8 3.8 2.42 5 3 2.26 6.16 4.48 8.2 7.63s2.68 7.55.45 10.58c-2.9 3.95-9.85 4.8-10.52 9.65-.43 3.12 2.26 5.78 5 7.34 6.74 3.86 15.43 4.9 20.32 10.93 2-4.15 6.54-6.55 11-7.58s9.18-.95 13.75-1.64c1.47-.22 3.13-.67 3.8-2 1.28-2.6-2.36-5.7-1.1-8.3 1-2 3.76-1.83 5.8-2.62 3.34-1.3 4.7-5.6 3.77-9s-3.62-6.15-6.44-8.36c-7.58-6-16.7-9.46-25.93-12-4.3-1.17-9.33-3-13.78-3.2-4.25-.2-9.16 1.13-13.42 1.88z" fill="#eee"/></svg>