<svg xmlns="http://www.w3.org/2000/svg" viewBox="0 0 512 512"><path d="M193.7 64.1h-13.1c-13.7 0-24.9 11.1-24.9 24.9v25.7h38V64.1zm-8.6 26.7c-.1.4-.2.9-.4 1.3l-.6 1.2c-.3.4-.5.7-.9 1.1-1.3 1.3-3.1 2.1-5 2.1-.5 0-.9 0-1.4-.1-.4-.1-.9-.2-1.3-.4s-.8-.4-1.2-.7-.7-.5-1.1-.9c-.3-.3-.6-.7-.9-1.1s-.5-.8-.6-1.2c-.2-.4-.3-.9-.4-1.3s-.1-.9-.1-1.4 0-.9.1-1.4c.1-.4.2-.9.4-1.3l.6-1.2c.3-.4.5-.8.9-1.1 1.6-1.6 4-2.4 6.3-1.9.4.1.9.2 1.3.4l1.2.6c.4.3.7.5 1.1.9.3.3.6.7.9 1.1s.5.8.6 1.2c.2.4.3.9.4 1.3.1.5.1.9.1 1.4.2.4.1.9 0 1.4z" fill="#1b3954"/><path d="M356.3 89c0-13.7-11.1-24.9-24.9-24.9H207.7v50.5h148.7V89zm-86.2 7.4h-28.2c-3.9 0-7-3.1-7-7s3.1-7 7-7h28.2c3.9 0 7 3.1 7 7s-3.1 7-7 7z" fill="#16ade1"/><path d="M418.1 189c-3.6 1.3-5.6 5.3-4.3 8.9 6.5 18.6 9.8 38.1 9.8 58s-3.3 39.5-9.8 58c-1.3 3.6.6 7.6 4.3 8.9.8.3 1.6.4 2.3.4 2.9 0 5.6-1.8 6.6-4.7 7.1-20.1 10.6-41.2 10.6-62.7s-3.6-42.6-10.6-62.7c-1.3-3.4-5.3-5.4-8.9-4.1zm29.6-10.4c-3.6 1.3-5.6 5.3-4.3 8.9 7.7 21.9 11.6 45 11.6 68.5s-3.9 46.5-11.6 68.5c-1.3 3.6.6 7.6 4.3 8.9.8.3 1.5.4 2.3.4 2.9 0 5.6-1.8 6.6-4.7 8.2-23.4 12.4-48 12.4-73.1s-4.2-49.7-12.4-73.1c-1.2-3.6-5.2-5.6-8.9-4.3zm-59.3 20.8c-3.6 1.3-5.6 5.3-4.3 8.9 5.4 15.3 8.1 31.3 8.1 47.7s-2.7 32.4-8.1 47.7c-1.3 3.6.6 7.6 4.3 8.9.8.3 1.5.4 2.3.4 2.9 0 5.6-1.8 6.6-4.7 5.9-16.8 8.9-34.3 8.9-52.3s-3-35.5-8.9-52.3c-1.3-3.6-5.2-5.6-8.9-4.3zm97.9-26.9c-1.3-3.6-5.3-5.6-8.9-4.3s-5.6 5.3-4.3 8.9c8.9 25.3 13.4 51.8 13.4 78.9s-4.5 53.6-13.4 78.9c-1.3 3.6.6 7.6 4.3 8.9.8.3 1.5.4 2.3.4 2.9 0 5.6-1.8 6.6-4.7 9.4-26.8 14.1-54.9 14.1-83.5s-4.7-56.7-14.1-83.5zM93.9 189c-3.6-1.3-7.6.6-8.9 4.3-7 20.1-10.6 41.2-10.6 62.7S78 298.6 85 318.7c1 2.9 3.7 4.7 6.6 4.7.8 0 1.6-.1 2.3-.4 3.6-1.3 5.6-5.3 4.3-8.9-6.5-18.6-9.8-38.1-9.8-58s3.3-39.5 9.8-58c1.3-3.8-.6-7.8-4.3-9.1zm-29.6-10.4c-3.6-1.3-7.6.6-8.9 4.3-8.2 23.4-12.4 48-12.4 73.1s4.2 49.7 12.4 73.1c1 2.9 3.7 4.7 6.6 4.7.8 0 1.6-.1 2.3-.4 3.6-1.3 5.6-5.3 4.3-8.9-7.7-21.9-11.6-45-11.6-68.5s3.9-46.5 11.6-68.5c1.2-3.6-.7-7.6-4.3-8.9zm59.3 20.8c-3.6-1.3-7.6.6-8.9 4.3-5.9 16.8-8.9 34.3-8.9 52.3s3 35.5 8.9 52.3c1 2.9 3.7 4.7 6.6 4.7.8 0 1.6-.1 2.3-.4 3.6-1.3 5.6-5.3 4.3-8.9-5.4-15.3-8.1-31.3-8.1-47.7s2.7-32.4 8.1-47.7c1.3-3.6-.7-7.6-4.3-8.9zm-89-31.2c-3.6-1.3-7.6.6-8.9 4.3-9.4 26.8-14.1 54.9-14.1 83.5s4.8 56.7 14.1 83.5c1 2.9 3.7 4.7 6.6 4.7.8 0 1.5-.1 2.3-.4 3.6-1.3 5.6-5.3 4.3-8.9-8.9-25.3-13.4-51.8-13.4-78.9s4.5-53.6 13.4-78.9c1.3-3.6-.7-7.6-4.3-8.9zm321.7-39.5H155.7V353h49.2c3.9 0 7 3.1 7 7s-3.1 7-7 7h-49.2v16.3h200.7V128.7zM233.7 361.4c-.1.4-.2.9-.4 1.3l-.6 1.2c-.3.4-.5.7-.9 1.1-1.3 1.3-3.1 2.1-5 2.1-.5 0-.9-.1-1.4-.1-.4-.1-.9-.2-1.3-.4l-1.2-.6-1.1-.9c-.3-.3-.6-.7-.9-1.1s-.5-.8-.6-1.2c-.2-.4-.3-.9-.4-1.3-.1-.5-.1-.9-.1-1.4 0-.4 0-.9.1-1.4.1-.4.2-.9.4-1.3l.6-1.2c.3-.4.5-.7.9-1.1.3-.3.7-.6 1.1-.9s.8-.5 1.2-.6c.4-.2.9-.3 1.3-.4a6.15 6.15 0 0 1 2.7 0c.5.1.9.2 1.3.4l1.2.6 1.1.9c.3.3.6.7.9 1.1s.5.8.6 1.2c.2.4.3.9.4 1.3s.1.9.1 1.4.1.8 0 1.3zm88-77.2h-37.4v37.4h-56.5v-37.4h-37.4v-56.5h37.4v-37.4h56.5v37.4h37.4v56.5z" fill="#1b3954"/><path d="M155.7 423c0 13.7 11.1 24.9 24.9 24.9h150.9c13.7 0 24.9-11.1 24.9-24.9v-25.7H155.7V423zm95.3-5.3c1.6-1.6 4-2.4 6.3-1.9.4.1.9.2 1.3.4s.8.4 1.2.7.7.5 1.1.9c1.3 1.3 2.1 3.1 2.1 4.9s-.8 3.6-2.1 5c-1.3 1.3-3.1 2-4.9 2-.5 0-.9 0-1.4-.1-.4-.1-.9-.2-1.3-.4l-1.2-.6c-.4-.3-.7-.5-1.1-.9-1.3-1.3-2-3.1-2-5s.8-3.7 2-5z" fill="#16ade1"/></svg>