<svg xmlns="http://www.w3.org/2000/svg" viewBox="0 0 511.998 511.998"><path d="M359.513 32.468c-28.136 0-55.618 7.9-79.5 22.875-4.58 2.476-39.3 22.55-33.912 59.118 1.968 13.356 9.035 22.9 15.87 32.133 9.645 13.027 18.85 25.48 16.34 50.67-.136-.072-.263-.156-.4-.226-7.14-3.64-15.27-4.28-22.893-1.805-6.978 2.267-12.758 6.902-16.476 13.145a37.42 37.42 0 0 0-8.66-6.26c-5.604-2.943-11.723-4.385-17.88-4.293-.463-5.014-.202-8.3.095-12 .375-4.67.8-9.965-.328-18.294-2.192-16.182-11.46-30.32-26.096-39.808-17.653-11.446-41.38-14.804-61.92-8.768-37.352 10.977-58.946 50.313-48.137 87.686 3.2 11.028 9.05 21.2 16.95 29.417 4.146 4.313 6.4 10.007 6.156 15.62-.663 15.953 1.54 31.797 6.55 47.095 10.73 32.756 34.046 59.84 65.656 76.256 19.784 10.275 41.116 15.493 62.395 15.492a129.28 129.28 0 0 0 37.75-5.625 135.04 135.04 0 0 0 19.888-7.832c17.418-8.52 31.225-23.066 38.876-40.96 4.265-9.973 6.47-20.634 6.58-31.336a29.82 29.82 0 0 0 14.582-.95c15.586-5.023 24.238-22.042 19.3-37.935l-7.67-24.64a49.78 49.78 0 0 0-34.557-33.367c-10.56-2.884-21.493-2.217-31.33 1.628 7.25-39.767-7.004-59.036-18.684-74.812-5.86-7.915-10.92-14.75-12.158-23.15-3.547-24.07 22.63-38.082 23.715-38.65a10.11 10.11 0 0 0 .757-.432c20.76-13.08 44.672-19.995 69.155-19.995 73.053 0 132.486 61.076 132.486 136.147 0 82.38-64.683 151.606-118.943 195.172-50.8 40.793-102.3 67.372-117.065 74.645-14.204-6.993-62.296-31.804-111.073-69.904-4.353-3.4-10.636-2.627-14.037 1.725s-2.627 10.637 1.725 14.037c59.743 46.666 116.793 73.215 119.193 74.322a9.99 9.99 0 0 0 4.19.92c1.43 0 2.86-.307 4.2-.92 2.557-1.18 63.322-29.464 125.067-78.967 36.495-29.257 65.63-59.85 86.6-90.928 26.63-39.484 40.14-79.89 40.14-120.1.001-86.1-68.405-156.147-152.486-156.147zM198.83 232.6c4.53-3.982 9.423-8.288 12.082-14.68a17.25 17.25 0 0 1 9.673 1.915c3.508 1.843 6.214 4.764 7.793 8.335l-4.17 8.184-28.93-.573c1.2-1.113 2.4-2.16 3.552-3.18zm87.884 13.236l3.33-6.536a29.8 29.8 0 0 1 4.706-5.425 29.86 29.86 0 0 1 28.034-6.695 29.87 29.87 0 0 1 20.735 20.021l7.67 24.64c1.703 5.47-1.137 11.28-6.33 12.955a10.01 10.01 0 0 1-12.269-5.607l-5.846-18.777a10 10 0 1 0-19.096 5.945l6 19.27c9.057 29.227-4.182 60.133-31.478 73.484a115 115 0 0 1-16.933 6.667c-57.653 17.58-122.205-15.952-140.96-73.218-4.263-13.015-6.138-26.486-5.575-40.04.46-11.036-3.812-22.083-11.72-30.3-5.74-5.974-9.832-13.078-12.156-21.116-7.758-26.825 7.747-55.06 34.564-62.942 5-1.466 10.23-2.182 15.474-2.182 10.633 0 21.3 2.943 29.927 8.543 6.84 4.434 15.367 12.493 17.157 25.7.84 6.193.548 9.815.2 14-.408 5.088-.87 10.854.544 20.612.814 5.615-.3 6.765-7.08 12.732-1.867 1.64-3.983 3.5-6.173 5.66-.002.003-.072.07-.075.074l-.122.12a18.85 18.85 0 0 0-4.386 20.463c2.785 7.034 9.482 11.676 17.063 11.826l34.323.68c6.155.133 11.87-3.317 14.65-8.772l14.47-28.4a9.93 9.93 0 0 1 13.45-4.366 9.93 9.93 0 0 1 4.97 5.819 9.94 9.94 0 0 1-.602 7.63l-.5 1a50.19 50.19 0 0 0-4.224 8.287L258.73 256.7c-4.375 8.584-12.228 15.17-21.545 18.073-3.7 1.148-7.5 1.694-11.32 1.615l-43.248-.87a9.99 9.99 0 0 0-10.199 9.797 10 10 0 0 0 9.797 10.199l43.248.87c5.976.117 11.92-.726 17.67-2.515 10.076-3.138 19.054-9.075 25.872-16.917l7.047 22.633a10 10 0 0 0 12.521 6.575c5.273-1.642 8.217-7.248 6.575-12.52l-8.907-28.607c-1.986-6.385-1.73-13.134.48-19.205zm-169.69 119.367l-.287-.257c-4.1-3.7-10.432-3.35-14.122.76a10 10 0 0 0 .76 14.122l.287.257c1.9 1.715 4.298 2.56 6.678 2.56 2.74 0 5.47-1.12 7.444-3.32 3.7-4.1 3.35-10.432-.76-14.122zm115.274-309.66c-23.953-15.097-51.55-23.076-79.8-23.076C68.405 32.468 0 102.515 0 188.615 0 243 24.454 297.148 72.683 349.6c1.972 2.144 4.663 3.23 7.363 3.23 2.42 0 4.846-.873 6.767-2.64a10 10 0 0 0 .59-14.13C42.677 287.418 20 237.813 20 188.615c0-75.072 59.434-136.147 132.486-136.147 24.48 0 48.392 6.915 69.148 19.996a10 10 0 0 0 13.792-3.128c2.944-4.672 1.543-10.847-3.13-13.792zm127.217 24.458a10 10 0 1 0 0 20h.055c5.523 0 9.973-4.477 9.973-10s-4.504-10-10.027-10zm86.846 46.155c-12.368-17.978-29.495-31.55-49.53-39.25-5.155-1.98-10.94.592-12.922 5.747s.592 10.94 5.747 12.922c33.496 12.872 56.002 46.243 56.002 83.04a10 10 0 1 0 20 0c0-22.513-6.672-44.1-19.296-62.46z"/></svg>