<svg xmlns="http://www.w3.org/2000/svg" width="512" height="512"><path d="M512 256a255.62 255.62 0 0 1-1.066 23.448c-.543 6.113-1.317 12.152-2.3 18.12C488.782 419.182 383.227 512 256 512c-64.805 0-123.977-24.074-169.075-63.78a256.87 256.87 0 0 1-43.802-49.977C15.882 357.564 0 308.632 0 256 0 114.615 114.615 0 256 0s256 114.615 256 256z" fill="#f2f2f2"/><path d="M446.767 284.975c-7.764 2.936-7.45 2.988-11.557-4.493-5.245-9.53-8.035-19.55-8.276-30.448-.2-9.352 2.36-18.045 5.58-26.572 2.57-6.78-.773-9.174-6.646-9.79-4.274-.44-8.683-.397-12.967.042-11.14 1.14-12.236 2.1-15.193 12.915-1.755 6.416-3.156 12.884-6.07 18.975-7.19 14.994-15.36 29.435-23.74 43.77-1.505 2.58-2.748 5.36-4.87 7.565-6.07-9.09-8.36-19.132-8.87-29.665-.512-10.397 2.675-20.062 6.175-29.623 1.18-3.218.2-5.214-2.58-6.604-1.233-.616-2.612-1.19-3.96-1.296-7.147-.564-14.273-.48-21.243 1.473-3.135.867-5.183 2.623-5.883 6.144a93.77 93.77 0 0 1-6.343 20.01l-23.76 53.52c-6.896 15.496-13.688 31.033-21.86 45.913-.575 1.055-1.055 2.884-2.497 2.518-1.463-.366-.95-2.163-1.014-3.396-.47-8.777 1.923-17.147 3.96-25.527l10.188-39.675c.982-3.793-.67-6.343-3.814-8.16-4.524-2.602-9.028-2.727-13.928.92.67-5.392.96-10.125.73-14.858-.522-10.553-5.413-17.418-13.928-19.007-6.217-1.16-12.1.648-17.66 3.28-12.957 6.134-23.374 15.38-32.13 26.603-1.024 1.306-2.058 2.508-3.542 3.312l-49.256 26.948c-1.797 1.003-2.957.72-4.253-.67-8.255-8.85-17.836-16.154-27.324-23.562-13.26-10.365-26.98-20.187-38.42-32.684-6.687-7.314-12.267-15.33-15.057-25.004-4.556-15.82-1.15-30.553 6.437-44.554 8.976-16.562 22.288-29.35 36.968-40.74 23.312-18.077 48.88-32.434 75.828-44.25 30.177-13.218 61.482-21.734 94.824-20.45 13.208.512 26.028 2.8 37.794 9.268 8.328 4.577 13.845 11.19 15.402 20.898 1.83 11.368-.9 21.87-5.945 31.828-11.274 22.246-29.194 38.003-50.375 50.343-17.638 10.27-36.665 16.792-56.8 20.208-11.128 1.89-22.298 3.03-33.49 1.327-12.842-1.954-24.712-6.248-33.5-16.593-1.014-1.19-2.3-2.017-4.023-1.18-1.766.857-1.63 2.424-1.463 3.93.125 1.034.408 2.08.773 3.062 2.35 6.343 6.75 11.128 11.9 15.308 13.396 10.898 29.268 14.096 45.934 14.42 16.31.324 32.37-1.745 48.264-5.548 35.85-8.568 65.88-26.154 87.803-56.29 13.103-18.014 21.4-37.867 20.668-60.583-.47-14.41-5.32-27.136-15.82-37.48-12.487-12.278-27.982-18.453-44.607-22.162-18.516-4.117-37.22-4.702-56.11-2.445-16.436 1.964-32.496 5.33-48.128 10.7-23.918 8.244-47.02 18.37-69.13 30.678-22.653 12.6-44 27.032-62.725 45.108-16.572 15.997-30.814 33.646-38.84 55.557-3.427 9.383-5.893 19.028-3.594 29.174 2.947 13.06 9.383 24.367 17.847 34.565 12.8 15.444 28.505 27.606 44.7 39.225 13.01 9.34 26.624 17.847 39.12 27.888 3.542 2.842 3.52 2.842-.648 5.026l-14.576 7.7c-19.298 10.9-37.95 22.738-53.174 39.175-7.492 8.098-12.58 17.19-14.952 27.282a256.81 256.81 0 0 0 43.802 49.977c28.432-2.215 50.197-17.01 66.278-41.482 7.764-11.818 11.4-25.192 12.77-39.3 1.202-12.434-.063-24.472-3.72-36.342-.637-2.1-3.01-4.17-2.08-6.008.867-1.693 3.48-2.55 5.402-3.657l23.5-13.53c.345 1.714-.324 2.717-.616 3.803-4.577 16.792-7.764 33.72-4.284 51.17 2.163 10.867 5.768 21.096 12.622 30.093 7.053 9.258 22.8 8.202 29.194-.25 6.07-8.025 10.094-17.074 14.284-26.08 2.3-4.932 4.41-9.947 6.604-14.932-.408 5.998-.387 11.85-.167 17.68.22 5.747 1.14 11.42 4.127 16.5 3.594 6.102 10.355 7.88 16.635 4.618 6.625-3.438 11.14-9.1 14.65-15.245 15.057-26.425 29.027-53.415 40.594-81.596l7.785-18.62.972 4.86c2.57 13.427 7.147 26.133 13.772 38.076 1.42 2.56 1.264 4.326-.533 6.78-6.102 8.307-12.8 16.123-19.383 24.022-5.538 6.646-11.463 13-16.144 20.313-4.2 6.583-1.787 13.322 5.204 14.817 2.152.46 4.42.596 6.625.564 12.215-.146 23.49-3.793 33.99-9.77 14.137-8.056 22.518-19.864 22.13-36.676-.178-7.65-2.247-14.994-5.33-22.006-.68-1.557-.71-2.685.303-4.148 9.79-14.023 18.442-28.724 26.394-43.854 1.41-2.664 2.403-5.622 4.68-8.223.303 1.055.543 1.714.68 2.393 2.53 12.54 5.935 24.795 12.33 35.986 1.755 3.062.878 4.618-1.546 6.666-8.35 7.095-15.39 15.37-20.92 24.848-4.305 7.377-7.252 15.255-7.22 23.897.03 9.613 7.387 15.276 16.76 13.02 9.77-2.34 18.83-6.322 26.958-12.267 17.71-12.967 22.904-26.645 17.356-45.735-2.173-7.513-2.132-7.387 5.402-9.665 16.478-4.974 33.196-5.183 49.998-2.445 1.902.313 3.783.67 5.642 1.076.982-5.966 1.755-12.006 2.3-18.12-21.494-5.254-42.957-2.527-64.168 5.53zM98.586 419.4c-4.775 1.693-9.738 2.414-14.817 2.017-6.322-.502-10.334-4.963-10.742-11.672-.46-7.732 1.83-14.712 5.214-21.504 6.154-12.33 16.488-20.7 27.032-28.912 10.25-7.993 21.264-14.817 32.402-21.452 3.375-2.006 3.427-1.985 4.2 2.038 1.003 5.162 1.902 10.334 1.567 15.026.88 28.138-19.56 55.504-44.856 64.46zm153.37-141.887c-1.776 11.86-5.653 23.155-9.78 34.314-5.622 15.235-11.097 30.542-18.17 45.192-1.62 3.375-3.323 6.73-5.945 9.477-2.476 2.602-4.67 2.3-6.384-.878-3.344-6.207-2.926-13.113-3.47-18.13.157-25.16 8.6-45.725 22.507-64.21 3.887-5.15 8.85-9.34 15.423-11.024 4.46-1.137 6.52.66 5.82 5.257zm97.385 74.49c-4.765 8.234-11.63 14.22-20.052 18.484-.9.45-2.058 1.243-2.873.188-.773-.993.47-1.65 1.034-2.278 8.37-9.143 16.635-18.36 24.085-28.275.115-.157.397-.178 1.034-.45-.073 4.588-1.076 8.62-3.228 12.33zm57.793-.355c-1.243.585-2.685 1.682-3.897.742-1.337-1.034-.805-2.863-.397-4.263 1.902-6.384 4.462-12.497 7.993-18.192 2.967-4.796 6.646-8.986 10.69-12.894 1.63-1.567 2.36-1.38 2.915.878.575 2.31.627 4.618.67 6.97-.104 12.863-6.635 21.42-17.972 26.76z" fill="#eee"/></svg>