<svg xmlns="http://www.w3.org/2000/svg" viewBox="0 0 512.001 512.001" width="512" height="512" fill="#2d8dc5"><path d="M385.968 46.993c-5.52 0-10 4.48-10 10s4.48 10 10 10 10-4.48 10-10-4.478-10-10-10zM395.123 8C332.41-12.1 279.998 10.394 255.97 24.26 231.942 10.4 179.54-12.115 116.8 8 33.738 34.646-5.2 155.948 61.398 253.824c31.557 46.352 35.77 82.105 40.232 119.958 3.266 27.7 6.643 56.362 20.75 89.86 9.486 22.52 22.895 48.28 42.734 48.28l.542-.006c15.953-.377 28.8-16.2 41.68-51.304 6.557-17.895 10.758-39 14.82-59.43 7.313-36.754 14.876-74.76 33.883-74.892h.1c18.8 0 26.345 38.018 33.643 74.783 4.065 20.484 8.27 41.667 14.825 59.54 12.888 35.16 25.743 51.006 41.68 51.382l.54.006c19.8 0 33.226-25.802 42.726-48.36 13.48-32 17-60.593 20.426-88.234 4.808-38.917 9.35-75.675 40.63-121.7C518 154.578 476.8 34.182 395.123 8zm38.947 234.475c-33.996 50-39.05 90.92-43.938 130.48-3.397 27.497-6.606 53.47-19 82.922-14.716 34.94-23.25 36.123-24.33 36.123h-.032c-.385-.01-9.586-.655-23.375-38.274-6.02-16.412-10.07-36.816-13.985-56.548-4.396-22.15-8.548-43.073-15.392-59.404-8.757-20.895-21.485-31.487-37.836-31.487l-.275.001c-16.42.115-29.195 10.8-37.97 31.727-6.84 16.322-10.992 37.18-15.385 59.263-3.915 19.672-7.962 40.015-13.984 56.45-13.764 37.538-22.987 38.184-23.373 38.193-.896.016-9.53-.804-24.372-36.04-13.007-30.9-16.073-56.9-19.318-84.438-4.547-38.58-9.25-78.47-43.56-128.87C17.9 154.34 54.085 49.127 122.92 27.046 182.78 7.85 232.184 32.786 250.645 44.4c3.253 2.047 7.393 2.048 10.646.001 18.468-11.6 67.883-36.543 127.727-17.353 70.2 22.5 103.883 128.877 45.052 215.427zm3.004-138.948c-3.248-9.43-7.553-18.105-12.794-25.788a10 10 0 1 0-16.521 11.27c4.237 6.2 7.738 13.288 10.406 21.032 9.965 28.924 7.365 62.673-7.134 92.594a10 10 0 1 0 17.998 8.722c16.788-34.643 19.72-73.946 8.045-107.83zm-217.446 33.27l-40.257-13.42-13.42-40.257a10 10 0 0 0-18.974 0l-13.42 40.257-40.257 13.42a10 10 0 0 0 0 18.974l40.257 13.42 13.42 40.257a10 10 0 0 0 18.974 0l13.42-40.257 40.257-13.42a10 10 0 0 0 0-18.974zm-51.325 15a10 10 0 0 0-6.325 6.325l-5.513 16.54-5.513-16.54a10 10 0 0 0-6.325-6.325l-16.54-5.513 16.54-5.513a10 10 0 0 0 6.325-6.325l5.513-16.54 5.513 16.54a10 10 0 0 0 6.325 6.325l16.54 5.513-16.54 5.513z"/></svg>