<svg xmlns="http://www.w3.org/2000/svg" viewBox="0 0 26 26"><path d="M25 13c0-6.617-5.383-12-12-12S1 6.383 1 13c0 3.384 1.413 6.44 3.674 8.622a.73.73 0 0 0 .189.172 11.94 11.94 0 0 0 16.275 0 .73.73 0 0 0 .189-.172C23.587 19.44 25 16.384 25 13zM13 2.5c5.8 0 10.5 4.7 10.5 10.5a10.44 10.44 0 0 1-2.27 6.501c-.65-2.098-2.508-3.74-5.028-4.496 1.374-.994 2.272-2.605 2.272-4.424 0-3.014-2.455-5.466-5.474-5.466S7.526 7.566 7.526 10.58c0 1.82.898 3.43 2.272 4.424-2.52.756-4.378 2.398-5.028 4.496A10.44 10.44 0 0 1 2.5 13C2.5 7.2 7.2 2.5 13 2.5zm-3.974 8.08c0-2.187 1.782-3.966 3.974-3.966s3.974 1.78 3.974 3.966S15.19 14.547 13 14.547s-3.974-1.78-3.974-3.966zM6.03 20.832c.225-2.75 3.142-4.785 6.97-4.785s6.744 2.035 6.97 4.785C18.113 22.486 15.676 23.5 13 23.5s-5.113-1.014-6.97-2.668z" fill="#1d1d1b"/></svg>